<svg width="25" height="24" viewBox="0 0 25 24" fill="none" xmlns="http://www.w3.org/2000/svg">
<path d="M20.5 18.5254C20.5 18.3324 20.3434 18.1758 20.1504 18.1758H19.1504C18.9574 18.1758 18.8008 18.3324 18.8008 18.5254V19.5254C18.8008 19.7184 18.9574 19.875 19.1504 19.875H20.1504C20.3434 19.875 20.5 19.7184 20.5 19.5254V18.5254ZM11.6504 18.1758C11.4574 18.1758 11.3008 18.3324 11.3008 18.5254V19.5254C11.3008 19.7184 11.4574 19.875 11.6504 19.875H12.6504C12.8434 19.875 13 19.7184 13 19.5254V18.5254C13 18.3324 12.8434 18.1758 12.6504 18.1758H11.6504ZM11.5 13.5254V12.1758H10.1504C9.79141 12.1758 9.5 11.8844 9.5 11.5254C9.5 11.1664 9.79141 10.875 10.1504 10.875H11.5V9.52539C11.5 9.16641 11.7914 8.875 12.1504 8.875C12.5094 8.875 12.8008 9.16641 12.8008 9.52539V10.875H14.1504L14.2812 10.8887C14.5775 10.9492 14.8008 11.2112 14.8008 11.5254C14.8008 11.8395 14.5775 12.1015 14.2812 12.1621L14.1504 12.1758H12.8008V13.5254C12.8008 13.8844 12.5094 14.1758 12.1504 14.1758C11.7914 14.1758 11.5 13.8844 11.5 13.5254ZM11.6504 3.17578C11.4574 3.17578 11.3008 3.33238 11.3008 3.52539V4.52539C11.3008 4.71841 11.4574 4.875 11.6504 4.875H12.6504C12.8434 4.875 13 4.71841 13 4.52539V3.52539C13 3.33238 12.8434 3.17578 12.6504 3.17578H11.6504ZM3.80078 19.5254C3.80078 19.7184 3.95738 19.875 4.15039 19.875H5.15039C5.34341 19.875 5.5 19.7184 5.5 19.5254V18.5254C5.5 18.3324 5.34341 18.1758 5.15039 18.1758H4.15039C3.95738 18.1758 3.80078 18.3324 3.80078 18.5254V19.5254ZM5.5 11.0254C5.5 10.8324 5.34341 10.6758 5.15039 10.6758H4.15039C3.95738 10.6758 3.80078 10.8324 3.80078 11.0254V12.0254C3.80078 12.2184 3.95738 12.375 4.15039 12.375H5.15039C5.34341 12.375 5.5 12.2184 5.5 12.0254V11.0254ZM6.80078 12.0254C6.80078 12.8856 6.14127 13.5909 5.30078 13.667V16.8828C6.09176 16.9544 6.72141 17.584 6.79297 18.375H10.0078C10.0839 17.5345 10.7901 16.875 11.6504 16.875H12.6504C13.5107 16.875 14.2169 17.5345 14.293 18.375H17.5078C17.5794 17.584 18.209 16.9544 19 16.8828V13.667C18.1595 13.5909 17.5 12.8856 17.5 12.0254V11.0254C17.5 10.1651 18.1595 9.45886 19 9.38281V6.16699C18.2091 6.09539 17.5794 5.46673 17.5078 4.67578H14.293C14.2169 5.51631 13.5107 6.17578 12.6504 6.17578H11.6504C10.7901 6.17578 10.0839 5.51631 10.0078 4.67578H6.79297C6.72141 5.46673 6.09172 6.09539 5.30078 6.16699V9.38281C6.14131 9.45886 6.80078 10.1651 6.80078 11.0254V12.0254ZM18.8008 12.0254C18.8008 12.2184 18.9574 12.375 19.1504 12.375H20.1504C20.3434 12.375 20.5 12.2184 20.5 12.0254V11.0254C20.5 10.8324 20.3434 10.6758 20.1504 10.6758H19.1504C18.9574 10.6758 18.8008 10.8324 18.8008 11.0254V12.0254ZM20.5 3.52539C20.5 3.33238 20.3434 3.17578 20.1504 3.17578H19.1504C18.9574 3.17578 18.8008 3.33238 18.8008 3.52539V4.52539C18.8008 4.71841 18.9574 4.875 19.1504 4.875H20.1504C20.3434 4.875 20.5 4.71841 20.5 4.52539V3.52539ZM3.80078 4.52539C3.80078 4.71841 3.95738 4.875 4.15039 4.875H5.15039C5.34341 4.875 5.5 4.71841 5.5 4.52539V3.52539C5.5 3.33238 5.34341 3.17578 5.15039 3.17578H4.15039C3.95738 3.17578 3.80078 3.33238 3.80078 3.52539V4.52539ZM21.8008 4.52539C21.8008 5.38563 21.1413 6.09091 20.3008 6.16699V9.38281C21.1413 9.45886 21.8008 10.1651 21.8008 11.0254V12.0254C21.8008 12.8856 21.1413 13.5909 20.3008 13.667V16.8828C21.1413 16.9589 21.8008 17.6651 21.8008 18.5254V19.5254C21.8008 20.4364 21.0614 21.1758 20.1504 21.1758H19.1504C18.2901 21.1758 17.5839 20.5163 17.5078 19.6758H14.293C14.2169 20.5163 13.5107 21.1758 12.6504 21.1758H11.6504C10.7901 21.1758 10.0839 20.5163 10.0078 19.6758H6.79297C6.71693 20.5163 6.01066 21.1758 5.15039 21.1758H4.15039C3.23941 21.1758 2.5 20.4364 2.5 19.5254V18.5254C2.5 17.6651 3.15947 16.9589 4 16.8828V13.667C3.15951 13.5909 2.5 12.8856 2.5 12.0254V11.0254C2.5 10.1651 3.15947 9.45886 4 9.38281V6.16699C3.15951 6.09091 2.5 5.38563 2.5 4.52539V3.52539C2.5 2.61441 3.23941 1.875 4.15039 1.875H5.15039C6.01066 1.875 6.71693 2.53447 6.79297 3.375H10.0078C10.0839 2.53447 10.7901 1.875 11.6504 1.875H12.6504C13.5107 1.875 14.2169 2.53447 14.293 3.375H17.5078C17.5839 2.53447 18.2901 1.875 19.1504 1.875H20.1504C21.0614 1.875 21.8008 2.61441 21.8008 3.52539V4.52539Z" fill="#6B7280"/>
</svg>
