<svg width="81" height="81" viewBox="0 0 81 81" fill="none" xmlns="http://www.w3.org/2000/svg">
<path d="M29.7992 74.4115V75.951C29.7992 76.0279 29.7711 76.0945 29.7148 76.1508C29.6585 76.2052 29.59 76.2324 29.5093 76.2324C29.4287 76.2324 29.3602 76.2052 29.3039 76.1508C29.2495 76.0945 29.2223 76.0279 29.2223 75.951V74.2145C29.2223 74.1357 29.2495 74.0691 29.3039 74.0147L30.1792 73.1367C30.2129 73.1085 30.2298 73.0682 30.2298 73.0156V72.9988C30.2298 72.9331 30.2073 72.8796 30.1623 72.8383C30.1191 72.7952 30.0647 72.7736 29.999 72.7736H28.5018C28.4211 72.7736 28.3536 72.7455 28.2992 72.6892C28.2466 72.6329 28.2204 72.5635 28.2204 72.4809C28.2204 72.4021 28.2476 72.3355 28.302 72.2811C28.3564 72.2248 28.423 72.1967 28.5018 72.1967H30.5197C30.5966 72.1967 30.6623 72.2248 30.7167 72.2811C30.773 72.3374 30.8011 72.404 30.8011 72.4809V73.2126C30.8011 73.2933 30.7739 73.3609 30.7195 73.4153L29.8499 74.2905C29.8161 74.3187 29.7992 74.359 29.7992 74.4115ZM33.4733 74.6311H32.7641C32.6984 74.6311 32.643 74.6536 32.598 74.6986C32.5549 74.7418 32.5333 74.7943 32.5333 74.8562V75.951C32.5333 76.0279 32.5051 76.0945 32.4489 76.1508C32.3944 76.2052 32.3269 76.2324 32.2462 76.2324C32.1674 76.2324 32.1008 76.2052 32.0464 76.1508C31.992 76.0964 31.9648 76.0298 31.9648 75.951V72.4809C31.9648 72.4021 31.992 72.3355 32.0464 72.2811C32.1008 72.2248 32.1674 72.1967 32.2462 72.1967H33.6646C33.7397 72.1967 33.811 72.2257 33.8785 72.2839L34.4639 72.8721C34.5183 72.9265 34.5455 72.9959 34.5455 73.0804V73.7474C34.5455 73.828 34.5165 73.8975 34.4583 73.9556L34.236 74.1808C34.1891 74.2277 34.1656 74.2812 34.1656 74.3412C34.1656 74.4012 34.1891 74.4575 34.236 74.5101L34.4639 74.7352C34.5183 74.7896 34.5455 74.8562 34.5455 74.935V75.951C34.5455 76.0279 34.5174 76.0945 34.4611 76.1508C34.4067 76.2052 34.341 76.2324 34.2641 76.2324C34.1834 76.2324 34.1149 76.2052 34.0587 76.1508C34.0024 76.0945 33.9742 76.0279 33.9742 75.951V75.132C33.9742 75.0795 33.9573 75.0391 33.9236 75.011L33.5943 74.6817C33.5661 74.648 33.5258 74.6311 33.4733 74.6311ZM33.5943 74.0063L33.9236 73.6742C33.9573 73.646 33.9742 73.6076 33.9742 73.5588V73.2689C33.9742 73.2201 33.9573 73.1817 33.9236 73.1535L33.5943 72.8215C33.5624 72.7896 33.5221 72.7736 33.4733 72.7736H32.7641C32.6984 72.7736 32.643 72.7952 32.598 72.8383C32.5549 72.8796 32.5333 72.9331 32.5333 72.9988V73.829C32.5333 73.8946 32.5549 73.9491 32.598 73.9922C32.643 74.0335 32.6984 74.0541 32.7641 74.0541H33.4733C33.5221 74.0541 33.5624 74.0382 33.5943 74.0063Z" fill="#1F2937"/>
<path d="M53.214 74.4115V75.951C53.214 76.0279 53.1859 76.0945 53.1296 76.1508C53.0733 76.2052 53.0048 76.2324 52.9241 76.2324C52.8435 76.2324 52.775 76.2052 52.7187 76.1508C52.6643 76.0945 52.6371 76.0279 52.6371 75.951V74.2145C52.6371 74.1357 52.6643 74.0691 52.7187 74.0147L53.5939 73.1367C53.6277 73.1085 53.6446 73.0682 53.6446 73.0156V72.9988C53.6446 72.9331 53.6221 72.8796 53.5771 72.8383C53.5339 72.7952 53.4795 72.7736 53.4138 72.7736H51.9166C51.8359 72.7736 51.7684 72.7455 51.714 72.6892C51.6614 72.6329 51.6352 72.5635 51.6352 72.4809C51.6352 72.4021 51.6624 72.3355 51.7168 72.2811C51.7712 72.2248 51.8378 72.1967 51.9166 72.1967H53.9345C54.0114 72.1967 54.0771 72.2248 54.1315 72.2811C54.1878 72.3374 54.2159 72.404 54.2159 72.4809V73.2126C54.2159 73.2933 54.1887 73.3609 54.1343 73.4153L53.2647 74.2905C53.2309 74.3187 53.214 74.359 53.214 74.4115ZM55.9481 74.7408V75.9566C55.9481 76.0335 55.9199 76.1001 55.8637 76.1564C55.8092 76.2108 55.7417 76.2381 55.661 76.2381C55.5822 76.2381 55.5156 76.2108 55.4612 76.1564C55.4068 76.102 55.3796 76.0354 55.3796 75.9566V72.4809C55.3796 72.4021 55.4068 72.3355 55.4612 72.2811C55.5156 72.2248 55.5822 72.1967 55.661 72.1967H57.6789C57.7558 72.1967 57.8215 72.2248 57.8759 72.2811C57.9322 72.3374 57.9603 72.404 57.9603 72.4809C57.9603 72.5616 57.9322 72.631 57.8759 72.6892C57.8215 72.7455 57.7558 72.7736 57.6789 72.7736H56.1789C56.1132 72.7736 56.0578 72.7952 56.0128 72.8383C55.9697 72.8796 55.9481 72.9331 55.9481 72.9988V73.6967C55.9481 73.7624 55.9697 73.8187 56.0128 73.8656C56.0578 73.9106 56.1132 73.9331 56.1789 73.9331H57.2933C57.3721 73.9331 57.4387 73.9603 57.4932 74.0147C57.5476 74.0691 57.5748 74.1357 57.5748 74.2145C57.5748 74.2952 57.5466 74.3637 57.4903 74.42C57.4359 74.4763 57.3703 74.5044 57.2933 74.5044H56.1789C56.1132 74.5044 56.0578 74.5279 56.0128 74.5748C55.9697 74.6198 55.9481 74.6752 55.9481 74.7408Z" fill="#1F2937"/>
<path d="M68.4158 63.0675V60.9061C68.4158 60.8761 68.4083 60.8611 68.3932 60.8611C68.3801 60.8611 68.3679 60.8667 68.3567 60.878L68.1568 61.0806C68.1043 61.1332 68.0349 61.1594 67.9486 61.1594C67.8717 61.1594 67.8051 61.1322 67.7488 61.0778C67.6944 61.0215 67.6671 60.953 67.6671 60.8724C67.6671 60.7861 67.6934 60.7166 67.746 60.6641L68.4974 59.9155C68.5518 59.8611 68.6203 59.8339 68.7028 59.8339C68.7835 59.8339 68.852 59.862 68.9083 59.9183C68.9646 59.9746 68.9927 60.0412 68.9927 60.1181V63.0675C68.9927 63.1332 69.0133 63.1876 69.0546 63.2308C69.0978 63.2721 69.1522 63.2927 69.2178 63.2927H69.4599C69.5368 63.2927 69.6025 63.3218 69.6569 63.3799C69.7132 63.4381 69.7413 63.5075 69.7413 63.5882C69.7413 63.6651 69.7132 63.7317 69.6569 63.788C69.6025 63.8424 69.5368 63.8696 69.4599 63.8696H67.9486C67.8717 63.8696 67.8051 63.8424 67.7488 63.788C67.6944 63.7317 67.6671 63.6651 67.6671 63.5882C67.6671 63.5075 67.6944 63.4381 67.7488 63.3799C67.8051 63.3218 67.8717 63.2927 67.9486 63.2927H68.1906C68.2525 63.2927 68.3051 63.2721 68.3482 63.2308C68.3932 63.1876 68.4158 63.1332 68.4158 63.0675ZM72.1602 63.0675V60.9061C72.1602 60.8761 72.1527 60.8611 72.1377 60.8611C72.1245 60.8611 72.1123 60.8667 72.1011 60.878L71.9013 61.0806C71.8487 61.1332 71.7793 61.1594 71.693 61.1594C71.6161 61.1594 71.5495 61.1322 71.4932 61.0778C71.4388 61.0215 71.4116 60.953 71.4116 60.8724C71.4116 60.7861 71.4378 60.7166 71.4904 60.6641L72.2418 59.9155C72.2962 59.8611 72.3647 59.8339 72.4472 59.8339C72.5279 59.8339 72.5964 59.862 72.6527 59.9183C72.709 59.9746 72.7371 60.0412 72.7371 60.1181V63.0675C72.7371 63.1332 72.7578 63.1876 72.799 63.2308C72.8422 63.2721 72.8966 63.2927 72.9623 63.2927H73.2043C73.2812 63.2927 73.3469 63.3218 73.4013 63.3799C73.4576 63.4381 73.4857 63.5075 73.4857 63.5882C73.4857 63.6651 73.4576 63.7317 73.4013 63.788C73.3469 63.8424 73.2812 63.8696 73.2043 63.8696H71.693C71.6161 63.8696 71.5495 63.8424 71.4932 63.788C71.4388 63.7317 71.4116 63.6651 71.4116 63.5882C71.4116 63.5075 71.4388 63.4381 71.4932 63.3799C71.5495 63.3218 71.6161 63.2927 71.693 63.2927H71.935C71.9969 63.2927 72.0495 63.2721 72.0926 63.2308C72.1377 63.1876 72.1602 63.1332 72.1602 63.0675Z" fill="#1F2937"/>
<path d="M75.8934 41.151V41.2213C75.8934 41.272 75.9112 41.3123 75.9468 41.3424L76.1607 41.5506C76.1889 41.5844 76.2273 41.6013 76.2761 41.6013H76.9544C77.0032 41.6013 77.0416 41.5844 77.0698 41.5506L77.2836 41.3424C77.3174 41.3142 77.3343 41.2739 77.3343 41.2213V40.7035C77.3343 40.651 77.3174 40.6106 77.2836 40.5825L77.0698 40.3686C77.0397 40.3386 77.0013 40.3236 76.9544 40.3236H76.0847C76.0041 40.3236 75.9346 40.2945 75.8765 40.2363L75.398 39.7635C75.3493 39.7016 75.3249 39.6322 75.3249 39.5553V38.4267C75.3249 38.3479 75.3521 38.2813 75.4065 38.2269C75.4609 38.1706 75.5275 38.1425 75.6063 38.1425H77.6242C77.7011 38.1425 77.7668 38.1706 77.8212 38.2269C77.8775 38.2832 77.9056 38.3498 77.9056 38.4267C77.9056 38.5093 77.8784 38.5787 77.824 38.635C77.7696 38.6913 77.703 38.7194 77.6242 38.7194H76.1241C76.0585 38.7194 76.0031 38.741 75.9581 38.7841C75.9149 38.8254 75.8934 38.8789 75.8934 38.9446V39.3667C75.8934 39.4174 75.9112 39.4577 75.9468 39.4877L76.1607 39.6932C76.1907 39.7288 76.2292 39.7466 76.2761 39.7466H77.1401C77.2264 39.7466 77.2977 39.7748 77.354 39.8311L77.824 40.3039C77.8784 40.347 77.9056 40.4165 77.9056 40.5121V41.4184C77.9056 41.4972 77.8784 41.5638 77.824 41.6182L77.354 42.091C77.2958 42.1491 77.2245 42.1782 77.1401 42.1782H76.0847C76.0041 42.1782 75.9346 42.1491 75.8765 42.091L75.398 41.6182C75.3493 41.5563 75.3249 41.4896 75.3249 41.4184V41.151C75.3249 41.0722 75.3521 41.0056 75.4065 40.9512C75.4609 40.8968 75.5275 40.8696 75.6063 40.8696C75.687 40.8696 75.7545 40.8977 75.8089 40.954C75.8652 41.0084 75.8934 41.0741 75.8934 41.151Z" fill="#1F2937"/>
<path d="M68.1835 22.8693V20.7079C68.1835 20.6779 68.176 20.6629 68.161 20.6629C68.1479 20.6629 68.1357 20.6685 68.1244 20.6798L67.9246 20.8824C67.8721 20.9349 67.8027 20.9612 67.7163 20.9612C67.6394 20.9612 67.5728 20.934 67.5165 20.8796C67.4621 20.8233 67.4349 20.7548 67.4349 20.6741C67.4349 20.5878 67.4612 20.5184 67.5137 20.4659L68.2651 19.7172C68.3195 19.6628 68.388 19.6356 68.4706 19.6356C68.5513 19.6356 68.6197 19.6638 68.676 19.7201C68.7323 19.7763 68.7605 19.843 68.7605 19.9199V22.8693C68.7605 22.935 68.7811 22.9894 68.8224 23.0325C68.8655 23.0738 68.9199 23.0944 68.9856 23.0944H69.2276C69.3046 23.0944 69.3702 23.1235 69.4246 23.1817C69.4809 23.2399 69.5091 23.3093 69.5091 23.39C69.5091 23.4669 69.4809 23.5335 69.4246 23.5898C69.3702 23.6442 69.3046 23.6714 69.2276 23.6714H67.7163C67.6394 23.6714 67.5728 23.6442 67.5165 23.5898C67.4621 23.5335 67.4349 23.4669 67.4349 23.39C67.4349 23.3093 67.4621 23.2399 67.5165 23.1817C67.5728 23.1235 67.6394 23.0944 67.7163 23.0944H67.9584C68.0203 23.0944 68.0728 23.0738 68.116 23.0325C68.161 22.9894 68.1835 22.935 68.1835 22.8693ZM71.5536 21.9012L72.8454 20.6178C72.8567 20.6066 72.8623 20.5944 72.8623 20.5812C72.8623 20.57 72.8567 20.5587 72.8454 20.5475L72.5555 20.2604C72.5236 20.2285 72.4833 20.2126 72.4345 20.2126H71.9983C71.9495 20.2126 71.9092 20.2285 71.8773 20.2604L71.548 20.5925C71.5124 20.6225 71.4945 20.661 71.4945 20.7079V21.873C71.4945 21.903 71.503 21.9181 71.5199 21.9181C71.5311 21.9181 71.5424 21.9124 71.5536 21.9012ZM72.8792 21.4058L71.5874 22.692C71.5724 22.707 71.5649 22.7183 71.5649 22.7258C71.5649 22.7333 71.5724 22.7445 71.5874 22.7595L71.8773 23.0438C71.9054 23.0776 71.9458 23.0944 71.9983 23.0944H72.4345C72.4871 23.0944 72.5274 23.0776 72.5555 23.0438L72.8848 22.7145C72.9186 22.6864 72.9355 22.6479 72.9355 22.5991V21.434C72.9355 21.404 72.928 21.389 72.913 21.389C72.9017 21.389 72.8904 21.3946 72.8792 21.4058ZM70.9992 20.3111L71.5987 19.7285C71.6474 19.6666 71.715 19.6356 71.8013 19.6356H72.6259C72.7084 19.6356 72.7769 19.6628 72.8313 19.7172L73.4195 20.3111C73.4777 20.3692 73.5068 20.4387 73.5068 20.5193V22.7905C73.5068 22.8731 73.4777 22.9434 73.4195 23.0016L72.8313 23.5898C72.7769 23.6442 72.7084 23.6714 72.6259 23.6714H71.8013C71.7244 23.6714 71.6568 23.6423 71.5987 23.5841L70.9992 22.9959C70.9504 22.9472 70.926 22.8787 70.926 22.7905V20.5193C70.926 20.4293 70.9504 20.3599 70.9992 20.3111Z" fill="#1F2937"/>
<path d="M52.5864 5.94671H53.4138C53.4795 5.94671 53.5339 5.92607 53.5771 5.88479C53.6221 5.84164 53.6446 5.78723 53.6446 5.72156V4.37349C53.6446 4.29657 53.6728 4.22996 53.729 4.17368C53.7853 4.11739 53.8538 4.08925 53.9345 4.08925C54.0114 4.08925 54.0771 4.11739 54.1315 4.17368C54.1878 4.22996 54.2159 4.29657 54.2159 4.37349V7.84357C54.2159 7.92049 54.1878 7.9871 54.1315 8.04338C54.0771 8.09779 54.0114 8.125 53.9345 8.125C53.8538 8.125 53.7853 8.09779 53.729 8.04338C53.6728 7.9871 53.6446 7.92049 53.6446 7.84357V6.74879C53.6446 6.68688 53.6221 6.63434 53.5771 6.59119C53.5339 6.54616 53.4795 6.52364 53.4138 6.52364H52.395C52.3144 6.52364 52.2449 6.49456 52.1868 6.4364L51.7083 5.96359C51.6596 5.91481 51.6352 5.84539 51.6352 5.75533V4.37349C51.6352 4.29469 51.6624 4.22809 51.7168 4.17368C51.7712 4.11739 51.8378 4.08925 51.9166 4.08925C51.9973 4.08925 52.0648 4.11739 52.1192 4.17368C52.1755 4.22996 52.2037 4.29657 52.2037 4.37349V5.56677C52.2037 5.61743 52.2215 5.65777 52.2571 5.68779L52.471 5.89886C52.5029 5.93076 52.5414 5.94671 52.5864 5.94671ZM55.9481 6.6334V7.8492C55.9481 7.92612 55.9199 7.99273 55.8637 8.04901C55.8092 8.10342 55.7417 8.13063 55.661 8.13063C55.5822 8.13063 55.5156 8.10342 55.4612 8.04901C55.4068 7.9946 55.3796 7.928 55.3796 7.8492V4.37349C55.3796 4.29469 55.4068 4.22809 55.4612 4.17368C55.5156 4.11739 55.5822 4.08925 55.661 4.08925H57.6789C57.7558 4.08925 57.8215 4.11739 57.8759 4.17368C57.9322 4.22996 57.9603 4.29657 57.9603 4.37349C57.9603 4.45417 57.9322 4.52359 57.8759 4.58175C57.8215 4.63804 57.7558 4.66618 57.6789 4.66618H56.1789C56.1132 4.66618 56.0578 4.68776 56.0128 4.73091C55.9697 4.77219 55.9481 4.82566 55.9481 4.89133V5.58929C55.9481 5.65495 55.9697 5.71124 56.0128 5.75815C56.0578 5.80318 56.1132 5.82569 56.1789 5.82569H57.2933C57.3721 5.82569 57.4387 5.8529 57.4932 5.90731C57.5476 5.96172 57.5748 6.02832 57.5748 6.10712C57.5748 6.1878 57.5466 6.25628 57.4903 6.31257C57.4359 6.36886 57.3703 6.397 57.2933 6.397H56.1789C56.1132 6.397 56.0578 6.42045 56.0128 6.46736C55.9697 6.51239 55.9481 6.56774 55.9481 6.6334Z" fill="#1F2937"/>
<path d="M25.1955 5.94671H26.023C26.0886 5.94671 26.143 5.92607 26.1862 5.88479C26.2312 5.84164 26.2537 5.78723 26.2537 5.72156V4.37349C26.2537 4.29657 26.2819 4.22996 26.3382 4.17368C26.3945 4.11739 26.4629 4.08925 26.5436 4.08925C26.6205 4.08925 26.6862 4.11739 26.7406 4.17368C26.7969 4.22996 26.825 4.29657 26.825 4.37349V7.84357C26.825 7.92049 26.7969 7.9871 26.7406 8.04338C26.6862 8.09779 26.6205 8.125 26.5436 8.125C26.4629 8.125 26.3945 8.09779 26.3382 8.04338C26.2819 7.9871 26.2537 7.92049 26.2537 7.84357V6.74879C26.2537 6.68688 26.2312 6.63434 26.1862 6.59119C26.143 6.54616 26.0886 6.52364 26.023 6.52364H25.0042C24.9235 6.52364 24.8541 6.49456 24.7959 6.4364L24.3175 5.96359C24.2687 5.91481 24.2443 5.84539 24.2443 5.75533V4.37349C24.2443 4.29469 24.2715 4.22809 24.3259 4.17368C24.3803 4.11739 24.4469 4.08925 24.5257 4.08925C24.6064 4.08925 24.674 4.11739 24.7284 4.17368C24.7847 4.22996 24.8128 4.29657 24.8128 4.37349V5.56677C24.8128 5.61743 24.8306 5.65777 24.8663 5.68779L25.0802 5.89886C25.1121 5.93076 25.1505 5.94671 25.1955 5.94671ZM29.4972 6.52364H28.788C28.7223 6.52364 28.667 6.54616 28.6219 6.59119C28.5788 6.63434 28.5572 6.68688 28.5572 6.74879V7.84357C28.5572 7.92049 28.5291 7.9871 28.4728 8.04338C28.4184 8.09779 28.3508 8.125 28.2702 8.125C28.1913 8.125 28.1247 8.09779 28.0703 8.04338C28.0159 7.98897 27.9887 7.92237 27.9887 7.84357V4.37349C27.9887 4.29469 28.0159 4.22809 28.0703 4.17368C28.1247 4.11739 28.1913 4.08925 28.2702 4.08925H29.6886C29.7636 4.08925 29.8349 4.11833 29.9025 4.17649L30.4878 4.76469C30.5423 4.8191 30.5695 4.88852 30.5695 4.97295V5.63994C30.5695 5.72062 30.5404 5.79004 30.4822 5.8482L30.2599 6.07335C30.213 6.12026 30.1895 6.17373 30.1895 6.23377C30.1895 6.29381 30.213 6.35009 30.2599 6.40263L30.4878 6.62777C30.5423 6.68219 30.5695 6.74879 30.5695 6.82759V7.84357C30.5695 7.92049 30.5413 7.9871 30.485 8.04338C30.4306 8.09779 30.365 8.125 30.288 8.125C30.2074 8.125 30.1389 8.09779 30.0826 8.04338C30.0263 7.9871 29.9982 7.92049 29.9982 7.84357V7.0246C29.9982 6.97206 29.9813 6.93172 29.9475 6.90358L29.6182 6.5743C29.5901 6.54053 29.5497 6.52364 29.4972 6.52364ZM29.6182 5.89886L29.9475 5.56677C29.9813 5.53863 29.9982 5.50017 29.9982 5.45138V5.16151C29.9982 5.11273 29.9813 5.07426 29.9475 5.04612L29.6182 4.71403C29.5863 4.68213 29.546 4.66618 29.4972 4.66618H28.788C28.7223 4.66618 28.667 4.68776 28.6219 4.73091C28.5788 4.77219 28.5572 4.82566 28.5572 4.89133V5.72156C28.5572 5.78723 28.5788 5.84164 28.6219 5.88479C28.667 5.92607 28.7223 5.94671 28.788 5.94671H29.4972C29.546 5.94671 29.5863 5.93076 29.6182 5.89886Z" fill="#1F2937"/>
<path d="M7.47887 22.8693V20.7079C7.47887 20.6779 7.47137 20.6629 7.45636 20.6629C7.44322 20.6629 7.43103 20.6685 7.41977 20.6798L7.21995 20.8824C7.16742 20.9349 7.098 20.9612 7.01169 20.9612C6.93477 20.9612 6.86816 20.934 6.81188 20.8796C6.75747 20.8233 6.73026 20.7548 6.73026 20.6741C6.73026 20.5878 6.75653 20.5184 6.80906 20.4659L7.56049 19.7172C7.6149 19.6628 7.68338 19.6356 7.76593 19.6356C7.84661 19.6356 7.91509 19.6638 7.97138 19.7201C8.02767 19.7763 8.05581 19.843 8.05581 19.9199V22.8693C8.05581 22.935 8.07645 22.9894 8.11773 23.0325C8.16088 23.0738 8.21529 23.0944 8.28096 23.0944H8.52299C8.59992 23.0944 8.66558 23.1235 8.71999 23.1817C8.77628 23.2399 8.80442 23.3093 8.80442 23.39C8.80442 23.4669 8.77628 23.5335 8.71999 23.5898C8.66558 23.6442 8.59992 23.6714 8.52299 23.6714H7.01169C6.93477 23.6714 6.86816 23.6442 6.81188 23.5898C6.75747 23.5335 6.73026 23.4669 6.73026 23.39C6.73026 23.3093 6.75747 23.2399 6.81188 23.1817C6.86816 23.1235 6.93477 23.0944 7.01169 23.0944H7.25373C7.31564 23.0944 7.36818 23.0738 7.41133 23.0325C7.45636 22.9894 7.47887 22.935 7.47887 22.8693ZM10.7899 20.5925V20.6572C10.7899 20.7379 10.7617 20.8064 10.7054 20.8627C10.651 20.9171 10.5835 20.9443 10.5028 20.9443C10.4221 20.9443 10.3546 20.9171 10.3002 20.8627C10.2477 20.8064 10.2214 20.7379 10.2214 20.6572V20.3983C10.2214 20.3251 10.2458 20.2576 10.2946 20.1957L10.773 19.7229C10.8312 19.6647 10.9006 19.6356 10.9813 19.6356H12.0423C12.1229 19.6356 12.1924 19.6647 12.2505 19.7229L12.7205 20.1957C12.7749 20.2501 12.8021 20.3176 12.8021 20.3983V21.1751C12.8021 21.2595 12.7749 21.3289 12.7205 21.3833L12.6136 21.4931C12.5667 21.54 12.5432 21.5935 12.5432 21.6535C12.5432 21.7192 12.5667 21.7755 12.6136 21.8224L12.7205 21.9321C12.7749 21.9865 12.8021 22.055 12.8021 22.1376V22.9115C12.8021 22.9903 12.7749 23.0569 12.7205 23.1113L12.2505 23.5841C12.1924 23.6423 12.1229 23.6714 12.0423 23.6714H10.9813C10.9006 23.6714 10.8312 23.6423 10.773 23.5841L10.2946 23.1113C10.2458 23.0494 10.2214 22.9828 10.2214 22.9115V22.6442C10.2214 22.5672 10.2477 22.5025 10.3002 22.45C10.3546 22.3956 10.4221 22.3684 10.5028 22.3684C10.5835 22.3684 10.651 22.3956 10.7054 22.45C10.7617 22.5025 10.7899 22.5672 10.7899 22.6442V22.7145C10.7899 22.7652 10.8077 22.8055 10.8434 22.8355L11.0572 23.0438C11.0854 23.0776 11.1238 23.0944 11.1726 23.0944H11.8509C11.8997 23.0944 11.9381 23.0776 11.9663 23.0438L12.1802 22.8355C12.2139 22.8074 12.2308 22.767 12.2308 22.7145V22.3289C12.2308 22.2802 12.2139 22.2417 12.1802 22.2136L11.9663 21.994C11.9325 21.9603 11.894 21.9434 11.8509 21.9434H11.2008C11.1201 21.9434 11.0516 21.9152 10.9953 21.859C10.939 21.8027 10.9109 21.7342 10.9109 21.6535C10.9109 21.5747 10.939 21.5081 10.9953 21.4537C11.0516 21.3993 11.1201 21.3721 11.2008 21.3721H11.8509C11.8922 21.3721 11.9306 21.3543 11.9663 21.3186L12.1802 21.1019C12.2139 21.0738 12.2308 21.0353 12.2308 20.9865V20.5925C12.2308 20.54 12.2139 20.4996 12.1802 20.4715L11.9663 20.2604C11.9344 20.2285 11.8959 20.2126 11.8509 20.2126H11.1726C11.1276 20.2126 11.0891 20.2285 11.0572 20.2604L10.8434 20.4715C10.8077 20.5015 10.7899 20.5418 10.7899 20.5925Z" fill="#1F2937"/>
<path d="M3.9941 40.7204L3.78021 40.5009C3.74643 40.4671 3.70797 40.4502 3.66482 40.4502H2.98656C2.94341 40.4502 2.90495 40.4671 2.87118 40.5009L2.65729 40.7204C2.62164 40.7504 2.60381 40.7889 2.60381 40.8358V41.2213C2.60381 41.272 2.62164 41.3123 2.65729 41.3424L2.87118 41.5506C2.89932 41.5844 2.93778 41.6013 2.98656 41.6013H3.66482C3.7136 41.6013 3.75206 41.5844 3.78021 41.5506L3.9941 41.3424C4.02787 41.3142 4.04475 41.2739 4.04475 41.2213V40.8358C4.04475 40.787 4.02787 40.7485 3.9941 40.7204ZM3.9941 38.9783L3.78021 38.7673C3.74831 38.7354 3.70985 38.7194 3.66482 38.7194H2.98656C2.94153 38.7194 2.90307 38.7354 2.87118 38.7673L2.65729 38.9783C2.62164 39.0083 2.60381 39.0487 2.60381 39.0993V39.4933C2.60381 39.5403 2.62164 39.5787 2.65729 39.6087L2.87118 39.8254C2.90682 39.8611 2.94529 39.8789 2.98656 39.8789H3.66482C3.7061 39.8789 3.74456 39.8611 3.78021 39.8254L3.9941 39.6087C4.02787 39.5806 4.04475 39.5421 4.04475 39.4933V39.0993C4.04475 39.0468 4.02787 39.0065 3.9941 38.9783ZM3.85619 42.1782H2.79519C2.71451 42.1782 2.64509 42.1491 2.58693 42.091L2.10849 41.6182C2.05971 41.5563 2.03532 41.4896 2.03532 41.4184V40.6444C2.03532 40.5562 2.05971 40.4877 2.10849 40.439L2.22388 40.3292C2.27079 40.2823 2.29424 40.226 2.29424 40.1603C2.29424 40.1003 2.27079 40.0468 2.22388 39.9999L2.10849 39.8902C2.05971 39.8414 2.03532 39.772 2.03532 39.6819V38.9052C2.03532 38.832 2.05971 38.7644 2.10849 38.7025L2.58693 38.2297C2.64509 38.1716 2.71451 38.1425 2.79519 38.1425H3.85619C3.93687 38.1425 4.00629 38.1716 4.06445 38.2297L4.53445 38.7025C4.58886 38.7569 4.61606 38.8245 4.61606 38.9052V39.6819C4.61606 39.7663 4.58886 39.8358 4.53445 39.8902L4.4275 39.9999C4.3806 40.0468 4.35714 40.1003 4.35714 40.1603C4.35714 40.226 4.3806 40.2823 4.4275 40.3292L4.53445 40.439C4.58886 40.4934 4.61606 40.5619 4.61606 40.6444V41.4184C4.61606 41.4972 4.58886 41.5638 4.53445 41.6182L4.06445 42.091C4.00629 42.1491 3.93687 42.1782 3.85619 42.1782Z" fill="#1F2937"/>
<path d="M9.62548 63.0675V60.9061C9.62548 60.8761 9.61797 60.8611 9.60296 60.8611C9.58983 60.8611 9.57764 60.8667 9.56638 60.878L9.36656 61.0806C9.31403 61.1332 9.24461 61.1594 9.1583 61.1594C9.08137 61.1594 9.01477 61.1322 8.95848 61.0778C8.90407 61.0215 8.87687 60.953 8.87687 60.8724C8.87687 60.7861 8.90313 60.7166 8.95567 60.6641L9.70709 59.9155C9.76151 59.8611 9.82999 59.8339 9.91254 59.8339C9.99322 59.8339 10.0617 59.862 10.118 59.9183C10.1743 59.9746 10.2024 60.0412 10.2024 60.1181V63.0675C10.2024 63.1332 10.2231 63.1876 10.2643 63.2308C10.3075 63.2721 10.3619 63.2927 10.4276 63.2927H10.6696C10.7465 63.2927 10.8122 63.3218 10.8666 63.3799C10.9229 63.4381 10.951 63.5075 10.951 63.5882C10.951 63.6651 10.9229 63.7317 10.8666 63.788C10.8122 63.8424 10.7465 63.8696 10.6696 63.8696H9.1583C9.08137 63.8696 9.01477 63.8424 8.95848 63.788C8.90407 63.7317 8.87687 63.6651 8.87687 63.5882C8.87687 63.5075 8.90407 63.4381 8.95848 63.3799C9.01477 63.3218 9.08137 63.2927 9.1583 63.2927H9.40033C9.46225 63.2927 9.51478 63.2721 9.55793 63.2308C9.60296 63.1876 9.62548 63.1332 9.62548 63.0675ZM12.9365 60.7907V60.8555C12.9365 60.9362 12.9083 61.0046 12.8521 61.0609C12.7976 61.1153 12.7301 61.1425 12.6494 61.1425C12.5687 61.1425 12.5012 61.1153 12.4468 61.0609C12.3943 61.0046 12.368 60.9362 12.368 60.8555V60.5966C12.368 60.5234 12.3924 60.4558 12.4412 60.3939L12.9196 59.9211C12.9778 59.863 13.0472 59.8339 13.1279 59.8339H14.1889C14.2695 59.8339 14.339 59.863 14.3971 59.9211L14.8671 60.3996C14.9215 60.454 14.9487 60.5196 14.9487 60.5966V60.9484C14.9487 61.0309 14.9215 61.0994 14.8671 61.1538L12.99 63.0338C12.9618 63.0619 12.9477 63.091 12.9477 63.121C12.9477 63.1736 12.9693 63.2158 13.0125 63.2477C13.0575 63.2777 13.1091 63.2927 13.1673 63.2927H14.6673C14.7442 63.2927 14.8099 63.3218 14.8643 63.3799C14.9206 63.4381 14.9487 63.5075 14.9487 63.5882C14.9487 63.6651 14.9206 63.7317 14.8643 63.788C14.8099 63.8424 14.7442 63.8696 14.6673 63.8696H12.6494C12.5706 63.8696 12.504 63.8424 12.4496 63.788C12.3952 63.7336 12.368 63.667 12.368 63.5882V62.9578C12.368 62.8734 12.3924 62.8067 12.4412 62.758L14.338 60.8611C14.3643 60.8461 14.3774 60.817 14.3774 60.7739C14.3774 60.7382 14.3643 60.7073 14.338 60.681L14.1129 60.4587C14.081 60.4268 14.0425 60.4108 13.9975 60.4108H13.3192C13.2742 60.4108 13.2357 60.4268 13.2038 60.4587L12.99 60.6697C12.9543 60.6998 12.9365 60.7401 12.9365 60.7907Z" fill="#1F2937"/>
<mask id="path-11-outside-1_1139_13683" maskUnits="userSpaceOnUse" x="39.4513" y="10.8354" width="16" height="7" fill="black">
<rect fill="white" x="39.4513" y="10.8354" width="16" height="7"/>
<path d="M40.3082 12.7012C40.3082 12.223 40.696 11.8341 41.1739 11.8484C45.7532 11.9858 50.2344 13.2117 54.2459 15.4245C54.6646 15.6555 54.8003 16.1876 54.5569 16.5992C54.3136 17.0107 53.7833 17.1457 53.3642 16.9156C49.6201 14.8597 45.4431 13.717 41.1738 13.5807C40.696 13.5654 40.3082 13.1793 40.3082 12.7012Z"/>
</mask>
<path d="M40.3082 12.7012C40.3082 12.223 40.696 11.8341 41.1739 11.8484C45.7532 11.9858 50.2344 13.2117 54.2459 15.4245C54.6646 15.6555 54.8003 16.1876 54.5569 16.5992C54.3136 17.0107 53.7833 17.1457 53.3642 16.9156C49.6201 14.8597 45.4431 13.717 41.1738 13.5807C40.696 13.5654 40.3082 13.1793 40.3082 12.7012Z" fill="#FFD028"/>
<path d="M40.3082 12.7012C40.3082 12.223 40.696 11.8341 41.1739 11.8484C45.7532 11.9858 50.2344 13.2117 54.2459 15.4245C54.6646 15.6555 54.8003 16.1876 54.5569 16.5992C54.3136 17.0107 53.7833 17.1457 53.3642 16.9156C49.6201 14.8597 45.4431 13.717 41.1738 13.5807C40.696 13.5654 40.3082 13.1793 40.3082 12.7012Z" stroke="#E5E7EB" stroke-width="0.69165" mask="url(#path-11-outside-1_1139_13683)"/>
<mask id="path-12-outside-2_1139_13683" maskUnits="userSpaceOnUse" x="53.0499" y="16.0342" width="17.0588" height="15.0677" fill="black">
<rect fill="white" x="53.0499" y="16.0342" width="17.0588" height="15.0677"/>
<path d="M56.761 18.0473C57.0421 17.6605 57.5844 17.5737 57.9626 17.8662C61.5866 20.6691 64.4913 24.2948 66.4361 28.4429C66.6391 28.8759 66.4361 29.3862 65.9973 29.576C65.5585 29.7659 65.0501 29.5635 64.8463 29.1309C63.0258 25.267 60.3181 21.8873 56.9444 19.2676C56.5667 18.9744 56.48 18.4341 56.761 18.0473Z"/>
</mask>
<path d="M56.761 18.0473C57.0421 17.6605 57.5844 17.5737 57.9626 17.8662C61.5866 20.6691 64.4913 24.2948 66.4361 28.4429C66.6391 28.8759 66.4361 29.3862 65.9973 29.576C65.5585 29.7659 65.0501 29.5635 64.8463 29.1309C63.0258 25.267 60.3181 21.8873 56.9444 19.2676C56.5667 18.9744 56.48 18.4341 56.761 18.0473Z" fill="black" fill-opacity="0.2"/>
<path d="M56.761 18.0473C57.0421 17.6605 57.5844 17.5737 57.9626 17.8662C61.5866 20.6691 64.4913 24.2948 66.4361 28.4429C66.6391 28.8759 66.4361 29.3862 65.9973 29.576C65.5585 29.7659 65.0501 29.5635 64.8463 29.1309C63.0258 25.267 60.3181 21.8873 56.9444 19.2676C56.5667 18.9744 56.48 18.4341 56.761 18.0473Z" stroke="#E5E7EB" stroke-width="0.69165" mask="url(#path-12-outside-2_1139_13683)"/>
<mask id="path-13-outside-3_1139_13683" maskUnits="userSpaceOnUse" x="61.7813" y="30.6511" width="11.6017" height="17.38" fill="black">
<rect fill="white" x="61.7813" y="30.6511" width="11.6017" height="17.38"/>
<path d="M66.9292 32.0427C67.3839 31.8949 67.8736 32.1435 68.0076 32.6024C69.2921 37.0001 69.5109 41.6408 68.646 46.1398C68.5558 46.6093 68.0916 46.9028 67.625 46.7985C67.1584 46.6942 66.8661 46.2316 66.9555 45.7619C67.7538 41.5658 67.5498 37.2401 66.3602 33.1377C66.227 32.6785 66.4744 32.1904 66.9292 32.0427Z"/>
</mask>
<path d="M66.9292 32.0427C67.3839 31.8949 67.8736 32.1435 68.0076 32.6024C69.2921 37.0001 69.5109 41.6408 68.646 46.1398C68.5558 46.6093 68.0916 46.9028 67.625 46.7985C67.1584 46.6942 66.8661 46.2316 66.9555 45.7619C67.7538 41.5658 67.5498 37.2401 66.3602 33.1377C66.227 32.6785 66.4744 32.1904 66.9292 32.0427Z" fill="black" fill-opacity="0.2"/>
<path d="M66.9292 32.0427C67.3839 31.8949 67.8736 32.1435 68.0076 32.6024C69.2921 37.0001 69.5109 41.6408 68.646 46.1398C68.5558 46.6093 68.0916 46.9028 67.625 46.7985C67.1584 46.6942 66.8661 46.2316 66.9555 45.7619C67.7538 41.5658 67.5498 37.2401 66.3602 33.1377C66.227 32.6785 66.4744 32.1904 66.9292 32.0427Z" stroke="#E5E7EB" stroke-width="0.69165" mask="url(#path-13-outside-3_1139_13683)"/>
<mask id="path-14-outside-4_1139_13683" maskUnits="userSpaceOnUse" x="57.3664" y="46.9405" width="11.6017" height="17.38" fill="black">
<rect fill="white" x="57.3664" y="46.9405" width="11.6017" height="17.38"/>
<path d="M66.9289 49.3421C67.3836 49.4899 67.6337 49.9788 67.4724 50.4289C65.9266 54.7416 63.3759 58.6246 60.0318 61.7561C59.6828 62.0829 59.1347 62.0475 58.8186 61.6889C58.5024 61.3302 58.5378 60.7842 58.8862 60.4567C61.9985 57.5312 64.376 53.9117 65.8249 49.8935C65.9871 49.4438 66.4742 49.1944 66.9289 49.3421Z"/>
</mask>
<path d="M66.9289 49.3421C67.3836 49.4899 67.6337 49.9788 67.4724 50.4289C65.9266 54.7416 63.3759 58.6246 60.0318 61.7561C59.6828 62.0829 59.1347 62.0475 58.8186 61.6889C58.5024 61.3302 58.5378 60.7842 58.8862 60.4567C61.9985 57.5312 64.376 53.9117 65.8249 49.8935C65.9871 49.4438 66.4742 49.1944 66.9289 49.3421Z" fill="black" fill-opacity="0.2"/>
<path d="M66.9289 49.3421C67.3836 49.4899 67.6337 49.9788 67.4724 50.4289C65.9266 54.7416 63.3759 58.6246 60.0318 61.7561C59.6828 62.0829 59.1347 62.0475 58.8186 61.6889C58.5024 61.3302 58.5378 60.7842 58.8862 60.4567C61.9985 57.5312 64.376 53.9117 65.8249 49.8935C65.9871 49.4438 66.4742 49.1944 66.9289 49.3421Z" stroke="#E5E7EB" stroke-width="0.69165" mask="url(#path-14-outside-4_1139_13683)"/>
<mask id="path-15-outside-5_1139_13683" maskUnits="userSpaceOnUse" x="41.4914" y="58.6805" width="17.0588" height="15.0677" fill="black">
<rect fill="white" x="41.4914" y="58.6805" width="17.0588" height="15.0677"/>
<path d="M56.7603 63.338C57.0413 63.7248 56.9562 64.2673 56.5612 64.5366C52.7756 67.1172 48.4297 68.7593 43.8837 69.3271C43.4092 69.3863 42.9866 69.0356 42.9416 68.5596C42.8966 68.0836 43.2463 67.6627 43.7206 67.6025C47.9581 67.0651 52.009 65.5343 55.543 63.1352C55.9386 62.8667 56.4792 62.9512 56.7603 63.338Z"/>
</mask>
<path d="M56.7603 63.338C57.0413 63.7248 56.9562 64.2673 56.5612 64.5366C52.7756 67.1172 48.4297 68.7593 43.8837 69.3271C43.4092 69.3863 42.9866 69.0356 42.9416 68.5596C42.8966 68.0836 43.2463 67.6627 43.7206 67.6025C47.9581 67.0651 52.009 65.5343 55.543 63.1352C55.9386 62.8667 56.4792 62.9512 56.7603 63.338Z" fill="black" fill-opacity="0.2"/>
<path d="M56.7603 63.338C57.0413 63.7248 56.9562 64.2673 56.5612 64.5366C52.7756 67.1172 48.4297 68.7593 43.8837 69.3271C43.4092 69.3863 42.9866 69.0356 42.9416 68.5596C42.8966 68.0836 43.2463 67.6627 43.7206 67.6025C47.9581 67.0651 52.009 65.5343 55.543 63.1352C55.9386 62.8667 56.4792 62.9512 56.7603 63.338Z" stroke="#E5E7EB" stroke-width="0.69165" mask="url(#path-15-outside-5_1139_13683)"/>
<mask id="path-16-outside-6_1139_13683" maskUnits="userSpaceOnUse" x="25.1647" y="63.5493" width="16" height="7" fill="black">
<rect fill="white" x="25.1647" y="63.5493" width="16" height="7"/>
<path d="M40.3077 68.6836C40.3077 69.1617 39.92 69.5507 39.4421 69.5363C34.8628 69.3989 30.3816 68.173 26.37 65.9602C25.9514 65.7293 25.8156 65.1971 26.059 64.7856C26.3024 64.3741 26.8327 64.2391 27.2518 64.4692C30.9959 66.5251 35.1729 67.6678 39.4421 67.8041C39.92 67.8193 40.3077 68.2055 40.3077 68.6836Z"/>
</mask>
<path d="M40.3077 68.6836C40.3077 69.1617 39.92 69.5507 39.4421 69.5363C34.8628 69.3989 30.3816 68.173 26.37 65.9602C25.9514 65.7293 25.8156 65.1971 26.059 64.7856C26.3024 64.3741 26.8327 64.2391 27.2518 64.4692C30.9959 66.5251 35.1729 67.6678 39.4421 67.8041C39.92 67.8193 40.3077 68.2055 40.3077 68.6836Z" fill="black" fill-opacity="0.2"/>
<path d="M40.3077 68.6836C40.3077 69.1617 39.92 69.5507 39.4421 69.5363C34.8628 69.3989 30.3816 68.173 26.37 65.9602C25.9514 65.7293 25.8156 65.1971 26.059 64.7856C26.3024 64.3741 26.8327 64.2391 27.2518 64.4692C30.9959 66.5251 35.1729 67.6678 39.4421 67.8041C39.92 67.8193 40.3077 68.2055 40.3077 68.6836Z" stroke="#E5E7EB" stroke-width="0.69165" mask="url(#path-16-outside-6_1139_13683)"/>
<mask id="path-17-outside-7_1139_13683" maskUnits="userSpaceOnUse" x="10.5074" y="50.2834" width="17.0588" height="15.0677" fill="black">
<rect fill="white" x="10.5074" y="50.2834" width="17.0588" height="15.0677"/>
<path d="M23.855 63.3379C23.574 63.7247 23.0317 63.8115 22.6535 63.519C19.0295 60.7162 16.1247 57.0904 14.1799 52.9423C13.977 52.5094 14.1799 51.9991 14.6187 51.8092C15.0575 51.6193 15.5659 51.8218 15.7697 52.2543C17.5903 56.1183 20.2979 59.498 23.6717 62.1176C24.0493 62.4108 24.136 62.9511 23.855 63.3379Z"/>
</mask>
<path d="M23.855 63.3379C23.574 63.7247 23.0317 63.8115 22.6535 63.519C19.0295 60.7162 16.1247 57.0904 14.1799 52.9423C13.977 52.5094 14.1799 51.9991 14.6187 51.8092C15.0575 51.6193 15.5659 51.8218 15.7697 52.2543C17.5903 56.1183 20.2979 59.498 23.6717 62.1176C24.0493 62.4108 24.136 62.9511 23.855 63.3379Z" fill="black" fill-opacity="0.2"/>
<path d="M23.855 63.3379C23.574 63.7247 23.0317 63.8115 22.6535 63.519C19.0295 60.7162 16.1247 57.0904 14.1799 52.9423C13.977 52.5094 14.1799 51.9991 14.6187 51.8092C15.0575 51.6193 15.5659 51.8218 15.7697 52.2543C17.5903 56.1183 20.2979 59.498 23.6717 62.1176C24.0493 62.4108 24.136 62.9511 23.855 63.3379Z" stroke="#E5E7EB" stroke-width="0.69165" mask="url(#path-17-outside-7_1139_13683)"/>
<mask id="path-18-outside-8_1139_13683" maskUnits="userSpaceOnUse" x="7.23253" y="33.3536" width="11.6017" height="17.38" fill="black">
<rect fill="white" x="7.23253" y="33.3536" width="11.6017" height="17.38"/>
<path d="M13.6864 49.3421C13.2317 49.4898 12.7419 49.2413 12.6079 48.7823C11.3235 44.3847 11.1046 39.744 11.9695 35.245C12.0598 34.7755 12.5239 34.4819 12.9905 34.5862C13.4571 34.6905 13.7494 35.1531 13.66 35.6228C12.8617 39.819 13.0657 44.1447 14.2554 48.2471C14.3885 48.7063 14.1411 49.1943 13.6864 49.3421Z"/>
</mask>
<path d="M13.6864 49.3421C13.2317 49.4898 12.7419 49.2413 12.6079 48.7823C11.3235 44.3847 11.1046 39.744 11.9695 35.245C12.0598 34.7755 12.5239 34.4819 12.9905 34.5862C13.4571 34.6905 13.7494 35.1531 13.66 35.6228C12.8617 39.819 13.0657 44.1447 14.2554 48.2471C14.3885 48.7063 14.1411 49.1943 13.6864 49.3421Z" fill="black" fill-opacity="0.2"/>
<path d="M13.6864 49.3421C13.2317 49.4898 12.7419 49.2413 12.6079 48.7823C11.3235 44.3847 11.1046 39.744 11.9695 35.245C12.0598 34.7755 12.5239 34.4819 12.9905 34.5862C13.4571 34.6905 13.7494 35.1531 13.66 35.6228C12.8617 39.819 13.0657 44.1447 14.2554 48.2471C14.3885 48.7063 14.1411 49.1943 13.6864 49.3421Z" stroke="#E5E7EB" stroke-width="0.69165" mask="url(#path-18-outside-8_1139_13683)"/>
<mask id="path-19-outside-9_1139_13683" maskUnits="userSpaceOnUse" x="11.6472" y="17.0642" width="11.6017" height="17.38" fill="black">
<rect fill="white" x="11.6472" y="17.0642" width="11.6017" height="17.38"/>
<path d="M13.6864 32.0427C13.2316 31.8949 12.9816 31.406 13.1429 30.9559C14.6886 26.6431 17.2393 22.7601 20.5834 19.6287C20.9324 19.3019 21.4805 19.3373 21.7967 19.6959C22.1129 20.0545 22.0774 20.6006 21.729 20.9281C18.6168 23.8536 16.2392 27.4731 14.7903 31.4912C14.6281 31.941 14.1411 32.1904 13.6864 32.0427Z"/>
</mask>
<path d="M13.6864 32.0427C13.2316 31.8949 12.9816 31.406 13.1429 30.9559C14.6886 26.6431 17.2393 22.7601 20.5834 19.6287C20.9324 19.3019 21.4805 19.3373 21.7967 19.6959C22.1129 20.0545 22.0774 20.6006 21.729 20.9281C18.6168 23.8536 16.2392 27.4731 14.7903 31.4912C14.6281 31.941 14.1411 32.1904 13.6864 32.0427Z" fill="black" fill-opacity="0.2"/>
<path d="M13.6864 32.0427C13.2316 31.8949 12.9816 31.406 13.1429 30.9559C14.6886 26.6431 17.2393 22.7601 20.5834 19.6287C20.9324 19.3019 21.4805 19.3373 21.7967 19.6959C22.1129 20.0545 22.0774 20.6006 21.729 20.9281C18.6168 23.8536 16.2392 27.4731 14.7903 31.4912C14.6281 31.941 14.1411 32.1904 13.6864 32.0427Z" stroke="#E5E7EB" stroke-width="0.69165" mask="url(#path-19-outside-9_1139_13683)"/>
<mask id="path-20-outside-10_1139_13683" maskUnits="userSpaceOnUse" x="22.0648" y="7.63655" width="17.0588" height="15.0677" fill="black">
<rect fill="white" x="22.0648" y="7.63655" width="17.0588" height="15.0677"/>
<path d="M23.8547 18.0468C23.5737 17.66 23.6588 17.1174 24.0538 16.8481C27.8393 14.2676 32.1852 12.6254 36.7313 12.0577C37.2058 11.9984 37.6284 12.3492 37.6734 12.8252C37.7184 13.3012 37.3687 13.7221 36.8944 13.7822C32.6569 14.3197 28.606 15.8504 25.072 18.2496C24.6764 18.5181 24.1358 18.4336 23.8547 18.0468Z"/>
</mask>
<path d="M23.8547 18.0468C23.5737 17.66 23.6588 17.1174 24.0538 16.8481C27.8393 14.2676 32.1852 12.6254 36.7313 12.0577C37.2058 11.9984 37.6284 12.3492 37.6734 12.8252C37.7184 13.3012 37.3687 13.7221 36.8944 13.7822C32.6569 14.3197 28.606 15.8504 25.072 18.2496C24.6764 18.5181 24.1358 18.4336 23.8547 18.0468Z" fill="black" fill-opacity="0.2"/>
<path d="M23.8547 18.0468C23.5737 17.66 23.6588 17.1174 24.0538 16.8481C27.8393 14.2676 32.1852 12.6254 36.7313 12.0577C37.2058 11.9984 37.6284 12.3492 37.6734 12.8252C37.7184 13.3012 37.3687 13.7221 36.8944 13.7822C32.6569 14.3197 28.606 15.8504 25.072 18.2496C24.6764 18.5181 24.1358 18.4336 23.8547 18.0468Z" stroke="#E5E7EB" stroke-width="0.69165" mask="url(#path-20-outside-10_1139_13683)"/>
<rect x="59.3666" y="32.6626" width="15.8594" height="36.888" rx="6.34013" transform="rotate(90 59.3666 32.6626)" fill="black" fill-opacity="0.1"/>
<path d="M29 33L31.8281 33L40.3047 33L45.5 33.5001L42 35.5276L33 35.5276L28 34.0001L29 33Z" fill="#FFD028"/>
<path d="M42 33L44.8281 33L53.3047 33L57 33.5L56 35.5276L48.5 35L46.5 33.5L41 34.0001L42 33Z" fill="#FFD028"/>
<path fill-rule="evenodd" clip-rule="evenodd" d="M59.2499 36.7186C58.8203 35.2336 57.7341 33.9817 56.2786 33.2939C55.1996 32.784 55.0142 32.7617 51.5429 32.7242L48.3755 32.6899L47.7836 32.1022C46.7184 31.0444 46.5494 30.909 46.2222 30.8515C45.2582 30.682 44.45 31.573 44.8184 32.3994L44.9508 32.6966L36.0172 32.7215C26.102 32.7491 26.8698 32.707 25.5841 33.2945C24.1677 33.9418 23.0191 35.278 22.6362 36.7239C22.4306 37.5003 22.4242 43.972 22.6283 44.7132C23.1376 46.5633 24.6414 48.0055 26.652 48.5725C27.1327 48.708 27.8284 48.7208 36.0585 48.7458L44.9458 48.773L44.8121 49.0921C44.3344 50.2321 45.8785 51.1625 46.8176 50.3006C46.9753 50.1559 47.3894 49.7516 47.7379 49.4023L48.3715 48.7671L51.2349 48.7642C54.6547 48.7608 55.1173 48.705 56.3051 48.1528C57.6149 47.5438 58.5406 46.5644 59.1145 45.1806L59.3437 44.628L59.362 40.8987C59.3772 37.8093 59.358 37.092 59.2499 36.7186ZM57.5171 38.03C56.5597 38.03 56.6974 38.1266 55.5004 36.6146L54.8041 35.7351L51.9305 35.7351C49.666 35.7351 49.0663 35.7568 49.1016 35.8375C49.1262 35.8939 49.2327 36.1805 49.3382 36.4746L49.5302 37.0092L52.0766 37.4458C53.4771 37.6858 55.445 38.0262 56.4496 38.202C57.4541 38.3779 58.2902 38.5218 58.3074 38.5218C58.3245 38.5218 58.3386 38.4111 58.3386 38.2759L58.3386 38.03L57.5171 38.03ZM58.1419 39.5494C57.9424 39.5078 56.3905 39.2399 52.4373 38.5646C51.2352 38.3593 50.1481 38.1715 50.0216 38.1473L49.7916 38.1032L49.8844 38.4969C50.0042 39.0061 50.0049 42.4607 49.8852 42.9682C49.8347 43.1824 49.8044 43.3576 49.8177 43.3576C49.8312 43.3576 50.4851 43.2463 51.2709 43.1103C52.0567 42.9742 53.8995 42.659 55.3661 42.4097C56.8327 42.1605 58.1014 41.9374 58.1856 41.9139C58.3218 41.8758 58.3386 41.746 58.3386 40.7308C58.3386 39.615 58.3344 39.5895 58.1419 39.5494ZM58.1683 42.9704C58.0746 42.9933 56.0922 43.338 53.763 43.7361L49.5279 44.4602L49.3759 44.913C49.2922 45.1619 49.2049 45.4118 49.1819 45.4681C49.1489 45.5488 49.7852 45.5704 52.1875 45.5696L55.235 45.5687L55.9344 44.781C57.0641 43.5088 56.9238 43.6034 57.6787 43.6034L58.3386 43.6034L58.3386 43.266C58.3386 42.9719 58.3167 42.934 58.1683 42.9704ZM58.0005 36.4727C57.6953 35.7469 57.678 35.7351 56.9187 35.7351C56.5457 35.7351 56.2404 35.7546 56.2404 35.7787C56.2404 35.8026 56.4615 36.0977 56.7318 36.4344L57.2232 37.0465L57.6935 37.0465C58.2239 37.0465 58.2339 37.0278 58.0005 36.4727ZM57.9523 44.669C57.8842 44.669 57.7733 44.6491 57.706 44.6249C57.6308 44.5979 57.4066 44.7717 57.1246 45.0757L56.6655 45.5705L57.2003 45.5705L57.7352 45.5705L57.9038 45.2222C58.106 44.8045 58.1179 44.669 57.9523 44.669ZM52.6947 46.6418L48.5905 46.6475L48.2199 47.1745L47.8493 47.7016L51.0351 47.7016C53.0546 47.7016 54.3906 47.668 54.6843 47.6097C55.2387 47.4997 56.0819 47.1468 56.4977 46.8505L56.7989 46.636L52.6947 46.6418ZM56.0437 34.3426C55.0865 33.8247 55.031 33.8181 51.3551 33.7871C47.6218 33.7558 47.8999 33.7054 48.3241 34.3355L48.549 34.6695L52.5259 34.6695C54.7131 34.6695 56.5026 34.6518 56.5026 34.6302C56.5026 34.6086 56.2961 34.4791 56.0437 34.3426ZM48.896 39.5601C48.8028 38.6405 48.5089 37.3495 48.2227 36.6023C47.7727 35.4277 46.7471 33.768 46.4712 33.768C46.3948 33.768 45.3979 34.2499 44.2557 34.8389L42.179 35.9098L42.3865 36.4815C43.338 39.1041 43.3302 42.3165 42.3657 45.1025C42.2909 45.3183 42.2446 45.5069 42.2628 45.5217C42.3629 45.6026 46.4116 47.6196 46.4739 47.6196C46.594 47.6196 47.6221 46.1743 47.8929 45.6248C48.6911 44.0053 49.0975 41.548 48.896 39.5601ZM46.4364 32.2722C46.1119 31.917 45.8366 31.7719 45.8366 31.9559C45.8366 32.1315 46.4165 32.6943 46.6016 32.6982C46.7098 32.7006 46.7969 32.6932 46.7952 32.682C46.7936 32.6707 46.6321 32.4863 46.4364 32.2722ZM46.6068 48.7713C46.4167 48.7753 45.8366 49.3343 45.8366 49.5136C45.8366 49.6996 46.1043 49.5502 46.4401 49.1769C46.7829 48.7958 46.7945 48.7674 46.6068 48.7713ZM42.785 46.9639L41.4216 46.2672L38.5584 46.2421C36.7242 46.2262 35.6951 46.2461 35.6951 46.2976C35.6951 46.4203 36.5632 47.6225 36.6829 47.6656C36.7407 47.6864 38.4441 47.6938 40.4682 47.682L44.1485 47.6606L42.785 46.9639ZM40.1586 33.768L36.404 33.768L35.9805 34.4442L35.5571 35.1203L38.4338 35.142L41.3105 35.1635L42.6118 34.4978C43.3276 34.1316 43.9132 33.8176 43.9132 33.8C43.9132 33.7824 42.2236 33.768 40.1586 33.768ZM41.8568 38.8496C41.7406 38.1338 41.4358 37.0003 41.2119 36.4522L41.12 36.2268L37.9452 36.2268C35.6564 36.2268 34.4787 36.1927 33.7247 36.1045C33.1495 36.0373 32.6593 35.9819 32.6352 35.9815C32.6112 35.9812 32.5898 36.2114 32.5877 36.4931C32.5856 36.783 32.4832 37.3496 32.352 37.798C31.7183 39.9625 31.6854 42.0231 32.2531 44.0069C32.4368 44.6493 32.459 44.8348 32.3842 45.1106C32.3348 45.2931 32.3117 45.4585 32.3329 45.4783C32.354 45.4982 32.6962 45.4643 33.0933 45.4032C33.577 45.3287 35.0258 45.277 37.4793 45.2468L41.1432 45.2017L41.3501 44.628C41.7551 43.505 41.9098 42.5815 41.9475 41.0626C41.9721 40.07 41.9441 39.3884 41.8568 38.8496ZM34.855 47.0459C34.6389 46.7528 34.4316 46.4644 34.3942 46.405C34.3389 46.317 34.035 46.3369 32.7595 46.512C31.8978 46.6302 31.116 46.7483 31.0222 46.7742C30.8702 46.8163 29.7501 47.6098 29.7501 47.6752C29.7501 47.6898 30.9894 47.7016 32.5041 47.7016C34.0187 47.7016 35.2557 47.6739 35.2529 47.6401C35.2501 47.6062 35.071 47.3389 34.855 47.0459ZM32.0947 33.7694L29.0944 33.7709L29.5753 34.022C30.9288 34.7286 31.0089 34.7537 32.4467 34.9197C34.463 35.1525 34.274 35.1938 34.7175 34.4236L35.095 33.768L32.0947 33.7694ZM31.3408 36.1608C31.109 35.9435 27.0888 33.9319 26.8862 33.9319C26.5794 33.9319 25.5225 34.4858 25.057 34.8904C24.4469 35.4209 24.0185 36.0458 23.7825 36.7494C23.5925 37.3155 23.5866 37.4386 23.5866 40.7757C23.5866 44.1576 23.5902 44.2277 23.7882 44.7651C24.3218 46.213 25.615 47.2743 27.2686 47.6217L27.6608 47.7041L28.5525 47.135C29.6526 46.4329 31.1331 45.283 31.252 45.0384C31.3185 44.9016 31.2846 44.6488 31.1155 44.0199C30.5706 41.9943 30.6268 39.7926 31.2826 37.4695C31.5404 36.5564 31.5492 36.3562 31.3408 36.1608Z" fill="#14284B"/>
</svg>
