<svg width="25" height="24" viewBox="0 0 25 24" fill="none" xmlns="http://www.w3.org/2000/svg">
<path d="M16.9164 15.3524L17.0472 15.3651C17.3433 15.4257 17.5657 15.6878 17.5658 16.0018C17.5658 16.3158 17.3434 16.5778 17.0472 16.6385L16.9164 16.6522H14.7972C14.4383 16.6522 14.1469 16.3608 14.1469 16.0018C14.147 15.6429 14.4383 15.3524 14.7972 15.3524H16.9164Z" fill="#6B7280"/>
<path d="M19.5078 15.7407C19.5077 14.5345 18.5295 13.5571 17.3232 13.5571H5.98438C4.77824 13.5572 3.80089 14.5346 3.80078 15.7407V20.1157L3.81543 20.2661C3.84478 20.4137 3.91737 20.5506 4.02539 20.6587L4.1416 20.7544C4.26676 20.8379 4.41471 20.8834 4.56738 20.8833H5.96875C6.17205 20.8832 6.36701 20.8025 6.51074 20.6587L6.60645 20.5415C6.66205 20.458 6.70116 20.3645 6.7207 20.2661L6.73535 20.1157V19.1792C6.73543 18.8204 7.02601 18.53 7.38477 18.5298H15.9189C16.2778 18.5299 16.5683 18.8203 16.5684 19.1792V20.1157L16.584 20.2671C16.6134 20.4143 16.6853 20.5509 16.793 20.6587L16.9102 20.7544C17.0353 20.8378 17.1833 20.8834 17.3359 20.8833H18.7393L18.8896 20.8686C19.0372 20.8394 19.1742 20.7674 19.2822 20.6596L19.3789 20.5425C19.4345 20.4591 19.4725 20.3653 19.4922 20.2671L19.5078 20.1157V15.7407ZM20.8076 20.1157L20.7979 20.3198C20.7578 20.7261 20.5978 21.1116 20.3389 21.4272L20.2012 21.5786C19.813 21.9662 19.2867 22.1828 18.7383 22.1821L17.3369 22.1831C16.8572 22.1835 16.3944 22.0175 16.0264 21.7163L15.875 21.5786C15.5353 21.2391 15.3251 20.7936 15.2783 20.3198L15.2686 20.1157V19.8296H8.03516V20.1157L8.02539 20.3198C7.98533 20.7256 7.8258 21.1108 7.56738 21.4262L7.43066 21.5776C7.04311 21.9654 6.51703 22.183 5.96875 22.1831H4.56836C4.08845 22.1834 3.62586 22.0167 3.25781 21.7153L3.10547 21.5776C2.76625 21.2383 2.55748 20.7932 2.51074 20.3198L2.5 20.1157V15.7407C2.50011 13.8166 4.06027 12.2564 5.98438 12.2563H17.3232C19.2474 12.2563 20.8075 13.8165 20.8076 15.7407V20.1157Z" fill="#6B7280"/>
<path d="M17.1015 8.89549C17.4074 8.82408 17.7134 8.98119 17.8398 9.25585L17.8818 9.38085L18.6943 12.8574L18.7119 12.9883C18.7203 13.2904 18.5156 13.567 18.2099 13.6387C17.9041 13.7101 17.5981 13.5528 17.4716 13.2783L17.4287 13.1533L16.6162 9.67577L16.5996 9.54589C16.5911 9.24356 16.7955 8.96697 17.1015 8.89549Z" fill="#6B7280"/>
<path d="M14.1554 6.87708L14.2862 6.89076C14.5823 6.95147 14.8048 7.21346 14.8048 7.52747C14.8048 7.84149 14.5823 8.10348 14.2862 8.16419L14.1554 8.17787H8.20713C7.56745 8.17812 7.00655 8.59059 6.81065 9.18958L6.77647 9.31263L5.87608 13.1544C5.79401 13.5037 5.44423 13.7207 5.09483 13.6388C4.74538 13.5569 4.52861 13.207 4.61045 12.8576L5.51084 9.01576L5.57529 8.78529C5.94439 7.65612 7.00132 6.87734 8.20713 6.87708H14.1554Z" fill="#6B7280"/>
<path d="M20.5075 4.52539C20.5075 3.77981 19.9035 3.17579 19.1579 3.17578H16.155C15.4094 3.17578 14.8054 3.77981 14.8054 4.52539V7.52832C14.8054 8.2739 15.4094 8.87793 16.155 8.87793H19.1579C19.9035 8.87792 20.5075 8.27389 20.5075 7.52832V4.52539ZM21.8083 7.52832C21.8083 8.99186 20.6215 10.1787 19.1579 10.1787H16.155C14.6914 10.1787 13.5046 8.99187 13.5046 7.52832V4.52539C13.5046 3.06184 14.6914 1.875 16.155 1.875H19.1579C20.6215 1.87501 21.8083 3.06184 21.8083 4.52539V7.52832Z" fill="#6B7280"/>
<path d="M18.4339 4.67252C18.6859 4.50562 19.0288 4.53275 19.2512 4.75455C19.5051 5.00806 19.5056 5.41941 19.2522 5.67349L17.7776 7.15201C17.6557 7.27421 17.4902 7.34332 17.3176 7.34342C17.1881 7.3434 17.0624 7.304 16.9563 7.23307L16.8567 7.15201L15.971 6.26236L15.887 6.1608C15.7208 5.90826 15.7495 5.56516 15.9719 5.34342C16.1944 5.12173 16.5373 5.09449 16.7893 5.26139L16.8909 5.34537L17.3167 5.77213L18.3313 4.75553L18.4339 4.67252Z" fill="#6B7280"/>
<path d="M8.44686 15.3524L8.57771 15.3651C8.8738 15.4257 9.09617 15.6878 9.09627 16.0018C9.09627 16.3158 8.87382 16.5778 8.57771 16.6385L8.44686 16.6522H6.32771C5.96873 16.6522 5.67732 16.3608 5.67732 16.0018C5.67744 15.6429 5.9688 15.3524 6.32771 15.3524H8.44686Z" fill="#6B7280"/>
<path d="M16.9804 15.3524L17.1113 15.3651C17.4074 15.4257 17.6297 15.6878 17.6298 16.0018C17.6298 16.3158 17.4074 16.5778 17.1113 16.6385L16.9804 16.6522H14.8613C14.5023 16.6522 14.2109 16.3608 14.2109 16.0018C14.211 15.6429 14.5024 15.3524 14.8613 15.3524H16.9804Z" fill="#6B7280"/>
<path d="M19.9898 11.1363C20.2817 11.058 20.5982 11.1924 20.7388 11.4732C20.8993 11.7943 20.7689 12.1847 20.4478 12.3453L18.3296 13.4049C18.0087 13.5653 17.6182 13.4355 17.4575 13.1148C17.2971 12.7939 17.4268 12.4034 17.7476 12.2428L19.8667 11.1832L19.9898 11.1363Z" fill="#6B7280"/>
<path d="M3.31836 11.1363L3.44141 11.1832L5.55957 12.2428L5.6709 12.3131C5.90873 12.4997 5.99107 12.8339 5.85059 13.1148C5.71 13.3955 5.39349 13.53 5.10156 13.4517L4.97852 13.4049L2.85938 12.3453L2.74805 12.275C2.51051 12.0883 2.42893 11.754 2.56934 11.4732C2.70997 11.1924 3.02636 11.0579 3.31836 11.1363Z" fill="#6B7280"/>
</svg>
