<svg width="25" height="24" viewBox="0 0 25 24" fill="none" xmlns="http://www.w3.org/2000/svg">
<path fill-rule="evenodd" clip-rule="evenodd" d="M6.77254 9.66717C7.0488 9.59212 7.33736 9.73653 7.44289 10.0026C8.06818 11.5795 9.41021 12.7944 11.0683 13.2474L11.0717 13.2483C11.519 13.3736 11.9977 13.4375 12.5 13.4375C13.0023 13.4375 13.481 13.3736 13.9283 13.2483C14.2055 13.1707 14.4966 13.3149 14.6028 13.5824C14.8987 14.3276 15.0625 15.148 15.0625 16C15.0625 17.9347 14.2208 19.6855 12.8753 20.879C11.7158 21.9281 10.1834 22.5625 8.5 22.5625C4.87934 22.5625 1.9375 19.6207 1.9375 16C1.9375 12.98 3.99348 10.4221 6.77254 9.66717ZM6.61107 10.8991C4.54474 11.6654 3.0625 13.6683 3.0625 16C3.0625 18.9993 5.50066 21.4375 8.5 21.4375C9.89554 21.4375 11.1622 20.9127 12.1224 20.0431L12.1269 20.039C13.2401 19.0525 13.9375 17.6042 13.9375 16C13.9375 15.4624 13.859 14.9411 13.7143 14.4521C13.3201 14.526 12.914 14.5625 12.5 14.5625C11.9029 14.5625 11.3222 14.4866 10.77 14.3321C8.94131 13.832 7.43317 12.5656 6.61107 10.8991Z" fill="#6B7280"/>
<path fill-rule="evenodd" clip-rule="evenodd" d="M12.5 2.5625C9.50066 2.5625 7.0625 5.00066 7.0625 8C7.0625 8.70796 7.19876 9.38782 7.44289 10.0026C8.06818 11.5795 9.41021 12.7944 11.0683 13.2474L11.0717 13.2483C11.519 13.3736 11.9977 13.4375 12.5 13.4375C13.0023 13.4375 13.481 13.3736 13.9283 13.2483L13.9317 13.2474C15.5898 12.7944 16.9318 11.5795 17.5571 10.0026C17.8012 9.38782 17.9375 8.70796 17.9375 8C17.9375 5.00066 15.4993 2.5625 12.5 2.5625ZM5.9375 8C5.9375 4.37934 8.87934 1.4375 12.5 1.4375C16.1207 1.4375 19.0625 4.37934 19.0625 8C19.0625 8.85195 18.8987 9.67224 18.6029 10.4174C17.8484 12.32 16.2311 13.7848 14.2299 14.3322C13.6778 14.4866 13.0971 14.5625 12.5 14.5625C11.9029 14.5625 11.3222 14.4866 10.77 14.3321C8.76895 13.7848 7.15174 12.3201 6.3972 10.4176C6.10133 9.67241 5.9375 8.85204 5.9375 8Z" fill="#6B7280"/>
<path fill-rule="evenodd" clip-rule="evenodd" d="M17.5571 10.0026C17.6626 9.73654 17.9512 9.59212 18.2275 9.66717C21.0065 10.4221 23.0625 12.98 23.0625 16C23.0625 19.6207 20.1207 22.5625 16.5 22.5625C14.8155 22.5625 13.2822 21.9273 12.1224 20.8769C12.0039 20.7696 11.9366 20.6169 11.9375 20.457C11.9384 20.2971 12.0072 20.145 12.1269 20.039C13.2401 19.0525 13.9375 17.6042 13.9375 16C13.9375 15.292 13.8013 14.6124 13.5572 13.9976C13.4981 13.8488 13.5052 13.6819 13.5767 13.5387C13.6482 13.3955 13.7773 13.2896 13.9317 13.2474C15.5898 12.7944 16.9318 11.5795 17.5571 10.0026ZM18.3889 10.8991C17.6536 12.3898 16.3693 13.5603 14.7977 14.1487C14.9697 14.7355 15.0625 15.3588 15.0625 16C15.0625 17.6997 14.4129 19.2574 13.3428 20.42C14.2314 21.062 15.3196 21.4375 16.5 21.4375C19.4993 21.4375 21.9375 18.9993 21.9375 16C21.9375 13.6683 20.4553 11.6654 18.3889 10.8991Z" fill="#6B7280"/>
<path d="M2.96289 16C2.96289 13.6636 4.42367 11.6523 6.47461 10.8447C6.46932 10.8335 6.46324 10.8227 6.45801 10.8115L6.30469 10.4541C6.24364 10.3003 6.18935 10.1431 6.13965 9.9834C3.74352 10.9254 2.03711 13.2707 2.03711 16C2.03711 19.5654 4.93457 22.4629 8.5 22.4629C9.93888 22.4629 11.2651 21.9912 12.3369 21.1914C12.3182 21.1762 12.2988 21.1618 12.2803 21.1465L12.0557 20.9512C11.9161 20.8247 11.8369 20.6444 11.8379 20.4561C11.838 20.4386 11.8413 20.4215 11.8428 20.4043C10.9152 21.1163 9.75949 21.5371 8.5 21.5371C5.44543 21.5371 2.96289 19.0546 2.96289 16ZM6.79883 9.76367C6.63877 9.80715 6.48109 9.85674 6.32617 9.91211C6.37533 10.0712 6.42949 10.2279 6.49023 10.3809L6.63965 10.7266C6.69984 10.8557 6.76471 10.9821 6.83301 11.1064C6.86507 11.1648 6.89883 11.2221 6.93262 11.2793C6.9598 11.3253 6.98636 11.3717 7.01465 11.417C7.06261 11.4938 7.113 11.5689 7.16406 11.6436C7.17773 11.6635 7.19022 11.6843 7.2041 11.7041C7.24553 11.7632 7.28967 11.8203 7.33301 11.8779C7.43108 12.0084 7.53219 12.1363 7.63965 12.2588C7.72124 12.3518 7.80584 12.4421 7.89258 12.5303C7.9168 12.5549 7.94219 12.5783 7.9668 12.6025C8.02899 12.6638 8.09163 12.7245 8.15625 12.7832C8.19263 12.8163 8.23044 12.8477 8.26758 12.8799C8.31921 12.9247 8.37078 12.9695 8.42383 13.0127C8.46267 13.0443 8.50241 13.0747 8.54199 13.1055C8.59522 13.1468 8.64859 13.1879 8.70312 13.2275C8.75395 13.2645 8.80549 13.3004 8.85742 13.3359C8.89848 13.364 8.93971 13.3918 8.98145 13.4189C9.04039 13.4573 9.0999 13.4948 9.16016 13.5312C9.20046 13.5556 9.24135 13.579 9.28223 13.6025C9.34231 13.6371 9.40258 13.6714 9.46387 13.7041C9.51701 13.7325 9.57098 13.7592 9.625 13.7861C9.6737 13.8104 9.72209 13.8353 9.77148 13.8584C9.8422 13.8914 9.91424 13.9216 9.98633 13.9521C10.0242 13.9682 10.0614 13.9857 10.0996 14.001C10.1867 14.0359 10.2753 14.0674 10.3643 14.0986C10.3901 14.1077 10.4154 14.1182 10.4414 14.127L10.7969 14.2354L11.002 14.2891C11.483 14.4051 11.985 14.4629 12.5 14.4629C12.6344 14.4629 12.7679 14.4571 12.9004 14.4492C12.9278 14.4476 12.9551 14.4453 12.9824 14.4434C13.0919 14.4355 13.2006 14.4254 13.3086 14.4121C13.4005 14.4008 13.4913 14.3844 13.582 14.3691C13.5708 14.334 13.5608 14.2985 13.5488 14.2637L13.4639 14.0342C13.3945 13.8591 13.4032 13.6627 13.4873 13.4941L13.5186 13.4434C13.1915 13.5042 12.8514 13.5371 12.5 13.5371C12.1168 13.5371 11.7465 13.501 11.3926 13.4287L11.0449 13.3447L11.042 13.3438C9.45881 12.9112 8.15852 11.7968 7.47754 10.3359L7.34961 10.0391C7.27351 9.8478 7.0825 9.73327 6.88379 9.74902L6.79883 9.76367ZM13.9551 13.3447C13.8612 13.3711 13.7787 13.426 13.7188 13.501L13.666 13.583C13.6072 13.7008 13.6018 13.8386 13.6504 13.9609L13.7383 14.1982C13.7539 14.2436 13.7668 14.29 13.7812 14.3359C13.9235 14.3072 14.0644 14.2751 14.2031 14.2363C14.3621 14.1928 14.518 14.14 14.6719 14.085C14.6525 14.0223 14.6345 13.9593 14.6133 13.8975L14.5098 13.6191C14.4224 13.3993 14.1829 13.2809 13.9551 13.3447ZM18.2012 9.76367C17.9742 9.70206 17.7373 9.8206 17.6504 10.0391C17.0686 11.5058 15.8765 12.6629 14.3877 13.2041C14.5235 13.2754 14.6348 13.3935 14.6953 13.5459L14.8018 13.833C14.8225 13.8933 14.8404 13.9545 14.8594 14.0156C14.9663 13.9736 15.0718 13.9293 15.1758 13.8818C15.4679 13.7486 15.7479 13.5942 16.0146 13.4209C16.0702 13.3848 16.1253 13.3483 16.1797 13.3105C16.2184 13.2836 16.2568 13.2562 16.2949 13.2285C16.3706 13.1735 16.4454 13.1177 16.5186 13.0596C16.5291 13.0512 16.5393 13.0426 16.5498 13.0342C16.6256 12.9731 16.6995 12.91 16.7725 12.8457C16.7912 12.8292 16.8106 12.8136 16.8291 12.7969C16.9125 12.7216 16.9938 12.644 17.0732 12.5645C17.0934 12.5442 17.1119 12.5224 17.1318 12.502C17.1949 12.4371 17.258 12.3722 17.3184 12.3047C17.3433 12.2768 17.3672 12.248 17.3916 12.2197C17.441 12.1625 17.4897 12.1048 17.5371 12.0459C17.5615 12.0156 17.5855 11.9849 17.6094 11.9541C17.6654 11.8819 17.7205 11.809 17.7734 11.7344C17.7866 11.7159 17.7996 11.6973 17.8125 11.6787C17.8782 11.584 17.9422 11.488 18.0029 11.3896C18.0253 11.3534 18.0457 11.316 18.0674 11.2793C18.1044 11.2167 18.1409 11.1538 18.1758 11.0898C18.3005 10.8613 18.4129 10.6251 18.5098 10.3809L18.6133 10.1016C18.6347 10.0391 18.6533 9.97551 18.6729 9.91211C18.6011 9.88649 18.5289 9.86197 18.4561 9.83887L18.2012 9.76367ZM3.16211 16C3.16211 18.9441 5.55589 21.3379 8.5 21.3379C9.86986 21.3379 11.1132 20.8223 12.0557 19.9688C12.0573 19.9672 12.0589 19.9654 12.0605 19.9639L12.2607 19.7773C13.236 18.8178 13.8379 17.4763 13.8379 16C13.8379 15.8511 13.8294 15.7036 13.8174 15.5576C13.8083 15.4476 13.7968 15.3385 13.7812 15.2305C13.7789 15.2145 13.7759 15.1986 13.7734 15.1826C13.7593 15.0903 13.7424 14.9989 13.7236 14.9082C13.6996 14.7926 13.6709 14.6789 13.6396 14.5664C13.5839 14.576 13.5279 14.5846 13.4717 14.5928C13.4535 14.5954 13.4353 14.5981 13.417 14.6006C13.3917 14.604 13.3662 14.6062 13.3408 14.6094C13.2341 14.6226 13.1267 14.6335 13.0186 14.6416C12.975 14.6449 12.9314 14.647 12.8877 14.6494C12.7592 14.6565 12.63 14.6621 12.5 14.6621C11.8944 14.6621 11.3046 14.5857 10.7432 14.4287C10.6219 14.3955 10.5021 14.3581 10.3838 14.3184C10.3334 14.3015 10.2842 14.2817 10.2344 14.2637C10.169 14.24 10.1035 14.2171 10.0391 14.1914C9.98151 14.1685 9.92491 14.1436 9.86816 14.1191C9.81025 14.0942 9.75236 14.0695 9.69531 14.043C9.63874 14.0167 9.58304 13.9888 9.52734 13.9609C9.47062 13.9326 9.41418 13.9039 9.3584 13.874C9.31404 13.8502 9.27031 13.8255 9.22656 13.8008C9.15663 13.7612 9.08688 13.7216 9.01855 13.6797C8.98074 13.6565 8.94355 13.6323 8.90625 13.6084C8.84198 13.5671 8.77855 13.5248 8.71582 13.4814C8.67642 13.4542 8.63741 13.4265 8.59863 13.3984C8.53418 13.3518 8.47089 13.3037 8.4082 13.2549C8.37418 13.2284 8.34013 13.202 8.30664 13.1748C8.23699 13.1183 8.16884 13.0602 8.10156 13.001C8.07852 12.9807 8.05498 12.961 8.03223 12.9404C7.96987 12.884 7.90978 12.8253 7.84961 12.7666C7.81648 12.7343 7.78245 12.7029 7.75 12.6699C7.59393 12.5112 7.44628 12.3445 7.30664 12.1709C7.25413 12.1056 7.20339 12.039 7.15332 11.9717C7.11889 11.9254 7.08305 11.8802 7.0498 11.833C7.01196 11.7793 6.97671 11.7238 6.94043 11.6689C6.90971 11.6225 6.87821 11.5765 6.84863 11.5293C6.81613 11.4774 6.78598 11.424 6.75488 11.3711C6.72045 11.3126 6.68599 11.254 6.65332 11.1943C6.62934 11.1506 6.607 11.1059 6.58398 11.0615C6.57748 11.049 6.5699 11.037 6.56348 11.0244C4.57821 11.7988 3.16211 13.7426 3.16211 16ZM14.0293 16.3047C13.947 17.8164 13.2564 19.1722 12.1934 20.1143L12.1279 20.1855C12.0704 20.2636 12.0377 20.3584 12.0371 20.457C12.0364 20.5885 12.092 20.7145 12.1895 20.8027L12.4082 20.9922C12.4382 21.017 12.4695 21.0402 12.5 21.0645C12.6051 20.9807 12.709 20.8948 12.8086 20.8047L13.0518 20.5771C13.1694 20.4613 13.2812 20.3396 13.3896 20.2148C13.4179 20.1823 13.447 20.1503 13.4746 20.1172C13.5109 20.0736 13.5459 20.0289 13.5811 19.9844C13.6123 19.9448 13.6425 19.9046 13.6729 19.8643C13.7078 19.8178 13.7426 19.7711 13.7764 19.7236C13.8039 19.6849 13.8308 19.6458 13.8574 19.6064C13.881 19.5716 13.9038 19.5363 13.9268 19.501C13.9642 19.4433 14.0005 19.3851 14.0361 19.3262C14.0558 19.2937 14.0757 19.2614 14.0947 19.2285C14.1251 19.1762 14.1547 19.1235 14.1836 19.0703C14.2091 19.0234 14.2344 18.9763 14.2588 18.9287C14.2924 18.8629 14.325 18.7966 14.3564 18.7295C14.4811 18.4632 14.587 18.1869 14.6748 17.9023C14.6888 17.8569 14.7028 17.8115 14.7158 17.7656C14.7301 17.7154 14.7438 17.665 14.7568 17.6143C14.7709 17.5598 14.7842 17.5052 14.7969 17.4502C14.8082 17.4009 14.8189 17.3515 14.8291 17.3018C14.8418 17.2399 14.8534 17.1777 14.8643 17.1152C14.8709 17.0773 14.8769 17.0392 14.8828 17.001C14.8945 16.9262 14.905 16.851 14.9141 16.7754C14.9187 16.737 14.9238 16.6987 14.9277 16.6602C14.9344 16.5944 14.9387 16.5282 14.9434 16.4619C14.9467 16.4154 14.9518 16.369 14.9541 16.3223C14.9594 16.2155 14.9629 16.108 14.9629 16C14.9629 15.8633 14.9567 15.7276 14.9482 15.5928C14.9448 15.5382 14.9403 15.4839 14.9355 15.4297C14.933 15.4004 14.9317 15.371 14.9287 15.3418C14.9104 15.1608 14.8845 14.982 14.8516 14.8057C14.8426 14.7576 14.8323 14.7098 14.8223 14.6621C14.8131 14.6184 14.804 14.5747 14.7939 14.5312C14.7741 14.4458 14.7517 14.3614 14.7285 14.2773C14.5734 14.3325 14.4161 14.3839 14.2559 14.4277L14.2568 14.4287C14.1189 14.4673 13.9791 14.5003 13.8379 14.5293C13.858 14.6026 13.8774 14.6764 13.8945 14.751C13.9014 14.7809 13.9086 14.8107 13.915 14.8408C13.9351 14.9353 13.9525 15.0307 13.9678 15.127C13.9718 15.1523 13.9768 15.1776 13.9805 15.2031C13.997 15.3179 14.0082 15.4339 14.0176 15.5508C14.0197 15.5771 14.0217 15.6035 14.0234 15.6299C14.0257 15.6637 14.0296 15.6975 14.0312 15.7314L14.0371 16L14.0293 16.3047ZM15.1553 16.3223C15.1495 16.4426 15.139 16.562 15.127 16.6807C15.1226 16.7235 15.1165 16.766 15.1113 16.8086C15.102 16.8852 15.092 16.9613 15.0801 17.0371C15.0743 17.074 15.0679 17.1108 15.0615 17.1475C15.0504 17.2116 15.0384 17.2754 15.0254 17.3389C15.0142 17.3935 15.0027 17.4478 14.9902 17.502C14.9765 17.5612 14.9616 17.62 14.9463 17.6787C14.9337 17.7271 14.9209 17.7753 14.9072 17.8232C14.8893 17.8862 14.8703 17.9486 14.8506 18.0107C14.8376 18.0518 14.8253 18.0931 14.8115 18.1338C14.7402 18.3444 14.6587 18.5504 14.5674 18.751C14.5599 18.7674 14.5516 18.7834 14.5439 18.7998C14.5064 18.8805 14.4674 18.9602 14.4268 19.0391C14.4066 19.0782 14.3852 19.1166 14.3643 19.1553C14.3359 19.2076 14.308 19.26 14.2783 19.3115C14.2509 19.3591 14.2229 19.4063 14.1943 19.4531C14.1669 19.4981 14.1388 19.5426 14.1104 19.5869C14.0843 19.6274 14.0572 19.6671 14.0303 19.707C13.9885 19.7689 13.9461 19.8302 13.9023 19.8906C13.8817 19.9191 13.8609 19.9475 13.8398 19.9756C13.8021 20.0259 13.7638 20.0758 13.7246 20.125C13.695 20.1622 13.6661 20.1998 13.6357 20.2363C13.603 20.2757 13.5688 20.3139 13.5352 20.3525C13.5208 20.3691 13.5058 20.385 13.4912 20.4014C14.3464 20.9928 15.3805 21.3379 16.5 21.3379C19.4441 21.3379 21.8379 18.9441 21.8379 16C21.8379 13.7423 20.4213 11.7986 18.4355 11.0244C18.4252 11.0447 18.4148 11.0648 18.4043 11.085C18.3872 11.1176 18.3702 11.1503 18.3525 11.1826C18.237 11.3946 18.1107 11.5996 17.9736 11.7969C17.9614 11.8145 17.949 11.8321 17.9365 11.8496C17.8825 11.9258 17.8266 12.0005 17.7695 12.0742C17.7444 12.1067 17.7191 12.1389 17.6934 12.1709C17.642 12.2347 17.5897 12.2975 17.5361 12.3594C17.5132 12.3859 17.4902 12.4123 17.4668 12.4385C17.4027 12.5101 17.3366 12.5797 17.2695 12.6484C17.2514 12.6671 17.2342 12.6867 17.2158 12.7051C17.1337 12.7874 17.0492 12.8674 16.9629 12.9453C16.9513 12.9558 16.9394 12.9661 16.9277 12.9766C16.8479 13.0477 16.7659 13.1163 16.6826 13.1836C16.6559 13.2052 16.6286 13.2259 16.6016 13.2471C16.5414 13.2942 16.4808 13.3407 16.4189 13.3857C16.3818 13.4128 16.3444 13.4395 16.3066 13.4658C16.2366 13.5147 16.1657 13.5622 16.0938 13.6084C16.0646 13.6271 16.0353 13.6458 16.0059 13.6641C15.8055 13.7883 15.5986 13.9029 15.3848 14.0059C15.3442 14.0254 15.3027 14.0428 15.2617 14.0615C15.1961 14.0915 15.1302 14.1206 15.0635 14.1484C15.0172 14.1678 14.9707 14.1867 14.9238 14.2051C14.9215 14.206 14.9193 14.2071 14.917 14.208C14.9317 14.2609 14.9465 14.3138 14.96 14.3672C14.968 14.399 14.9758 14.4309 14.9834 14.4629C15.0009 14.5369 15.0163 14.6116 15.0312 14.6865C15.0357 14.7087 15.0407 14.7307 15.0449 14.7529C15.0789 14.9322 15.1057 15.1139 15.125 15.2979C15.1274 15.3203 15.1297 15.3427 15.1318 15.3652C15.1441 15.4948 15.1535 15.6254 15.1582 15.7568L15.1621 16L15.1553 16.3223ZM22.0371 16C22.0371 19.0546 19.5546 21.5371 16.5 21.5371C15.3286 21.5371 14.2466 21.1736 13.3545 20.5498C13.2222 20.6898 13.0855 20.8263 12.9414 20.9541C12.8509 21.0359 12.7569 21.1137 12.6621 21.1904C13.7342 21.9908 15.0606 22.4629 16.5 22.4629C20.0654 22.4629 22.9629 19.5654 22.9629 16C22.9629 13.2703 21.256 10.9252 18.8594 9.9834C18.8403 10.0448 18.8226 10.1064 18.8018 10.167L18.6963 10.4541C18.6437 10.5867 18.5851 10.7165 18.5244 10.8447C20.5758 11.6521 22.0371 13.6633 22.0371 16ZM17.8379 8C17.8379 5.05589 15.4441 2.66211 12.5 2.66211C9.55589 2.66211 7.16211 5.05589 7.16211 8C7.16211 8.69515 7.29661 9.36257 7.53613 9.96582L7.65918 10.252C8.31565 11.6599 9.56904 12.7345 11.0947 13.1514H11.0977L11.0986 13.1523L11.4326 13.2324C11.7727 13.3019 12.1295 13.3379 12.5 13.3379C12.8705 13.3379 13.2273 13.3019 13.5674 13.2324L13.9014 13.1523C13.9027 13.152 13.904 13.1517 13.9053 13.1514L14.207 13.0586C15.6949 12.5555 16.8885 11.4167 17.4639 9.96582L17.5488 9.73633C17.7349 9.19501 17.8379 8.60819 17.8379 8ZM18.0371 8C18.0371 8.55999 17.9519 9.10226 17.7979 9.61035C17.9359 9.5454 18.0967 9.52762 18.2539 9.57031L18.5156 9.64746C18.5872 9.67014 18.658 9.69469 18.7285 9.71973C18.8792 9.17215 18.9629 8.59427 18.9629 8C18.9629 4.43457 16.0654 1.53711 12.5 1.53711C8.93457 1.53711 6.03711 4.43457 6.03711 8C6.03711 8.59418 6.11989 9.17222 6.27051 9.71973C6.42653 9.6643 6.58504 9.61407 6.74609 9.57031L6.86816 9.5498C6.98452 9.54058 7.09895 9.56241 7.20117 9.61035C7.04722 9.10234 6.96289 8.5599 6.96289 8C6.96289 4.94543 9.44543 2.46289 12.5 2.46289C15.5546 2.46289 18.0371 4.94543 18.0371 8ZM19.1621 8C19.1621 8.61861 19.0754 9.2203 18.917 9.79004C21.3962 10.7569 23.1621 13.1795 23.1621 16C23.1621 19.6759 20.1759 22.6621 16.5 22.6621C14.9966 22.6621 13.6119 22.1634 12.499 21.3184C11.3863 22.1628 10.0028 22.6621 8.5 22.6621C4.82411 22.6621 1.83789 19.6759 1.83789 16C1.83789 13.1799 3.60331 10.7571 6.08203 9.79004C5.92367 9.22037 5.83789 8.61851 5.83789 8C5.83789 4.32411 8.82411 1.33789 12.5 1.33789C16.1759 1.33789 19.1621 4.32411 19.1621 8Z" fill="#6B7280"/>
</svg>
