<svg width="77" height="59" viewBox="0 0 77 59" fill="none" xmlns="http://www.w3.org/2000/svg">
<g filter="url(#filter0_d_1139_10302)">
<path d="M16.625 47.567C18.1866 52.5829 22.8293 56 28.0826 56L34.4492 56L34.4492 0.999997L2.44921 1L5.3137 11.2334L16.625 47.567Z" fill="white"/>
<rect width="40" height="55" transform="translate(34.4492 1)" fill="white"/>
<path fill-rule="evenodd" clip-rule="evenodd" d="M49.9493 21.4165H38.9493C38.0748 21.4165 37.366 22.1254 37.366 22.9998V33.9998C37.366 34.8743 38.0748 35.5832 38.9493 35.5832H49.9493C50.8238 35.5832 51.5326 34.8743 51.5326 33.9998V22.9998C51.5326 22.1254 50.8238 21.4165 49.9493 21.4165ZM38.9493 20.1665C37.3845 20.1665 36.116 21.435 36.116 22.9998V33.9998C36.116 35.5646 37.3845 36.8332 38.9493 36.8332H49.9493C51.5141 36.8332 52.7826 35.5646 52.7826 33.9998V22.9998C52.7826 21.435 51.5141 20.1665 49.9493 20.1665H38.9493Z" fill="#9CA3AF"/>
<path d="M42.9013 20.1665H44.1513V36.8332H42.9013V20.1665Z" fill="#9CA3AF"/>
<path d="M48.4623 26.1138L47.1881 27.2606L46.4061 27.9608C46.0766 28.2573 46.0766 28.7396 46.4061 29.0362L48.4623 30.8868C48.7322 31.1297 49.1927 30.9546 49.1927 30.6152L49.1927 26.3853C49.1927 26.0423 48.7322 25.8708 48.4623 26.1138Z" fill="#9CA3AF"/>
<path d="M38.5437 24.3332C38.5437 23.9497 38.8546 23.6387 39.2381 23.6387H40.627C41.0105 23.6387 41.3214 23.9497 41.3214 24.3332C41.3214 24.7167 41.0105 25.0276 40.627 25.0276H39.2381C38.8546 25.0276 38.5437 24.7167 38.5437 24.3332Z" fill="#9CA3AF"/>
<path d="M38.5437 26.7638C38.5437 26.3803 38.8546 26.0694 39.2381 26.0694H40.627C41.0105 26.0694 41.3214 26.3803 41.3214 26.7638C41.3214 27.1473 41.0105 27.4583 40.627 27.4583H39.2381C38.8546 27.4583 38.5437 27.1473 38.5437 26.7638Z" fill="#9CA3AF"/>
<path d="M38.5437 29.1943C38.5437 28.8108 38.8546 28.4999 39.2381 28.4999H40.627C41.0105 28.4999 41.3214 28.8108 41.3214 29.1943C41.3214 29.5779 41.0105 29.8888 40.627 29.8888H39.2381C38.8546 29.8888 38.5437 29.5779 38.5437 29.1943Z" fill="#9CA3AF"/>
</g>
<defs>
<filter id="filter0_d_1139_10302" x="0.449219" y="0" width="76" height="59" filterUnits="userSpaceOnUse" color-interpolation-filters="sRGB">
<feFlood flood-opacity="0" result="BackgroundImageFix"/>
<feColorMatrix in="SourceAlpha" type="matrix" values="0 0 0 0 0 0 0 0 0 0 0 0 0 0 0 0 0 0 127 0" result="hardAlpha"/>
<feMorphology radius="1" operator="erode" in="SourceAlpha" result="effect1_dropShadow_1139_10302"/>
<feOffset dy="1"/>
<feGaussianBlur stdDeviation="1.5"/>
<feComposite in2="hardAlpha" operator="out"/>
<feColorMatrix type="matrix" values="0 0 0 0 0 0 0 0 0 0 0 0 0 0 0 0 0 0 0.12 0"/>
<feBlend mode="normal" in2="BackgroundImageFix" result="effect1_dropShadow_1139_10302"/>
<feBlend mode="normal" in="SourceGraphic" in2="effect1_dropShadow_1139_10302" result="shape"/>
</filter>
</defs>
</svg>
