<svg width="25" height="24" viewBox="0 0 25 24" fill="none" xmlns="http://www.w3.org/2000/svg">
<path d="M3.07996 13.3203C3.07996 8.11609 7.2957 3.90039 12.4999 3.90035C13.238 3.90035 13.9303 3.97714 14.579 4.10641L13.1747 2.49215L13.1268 2.4316C12.9077 2.12115 12.9551 1.68942 13.2479 1.43453C13.5409 1.1796 13.9756 1.19195 14.2528 1.45211L14.3055 1.50777L17.1952 4.82711L17.244 4.88961C17.3484 5.03857 17.3954 5.22172 17.3749 5.40426C17.3542 5.5867 17.2676 5.75399 17.1327 5.87594L17.0721 5.92574L13.702 8.3857L13.6376 8.4277C13.3096 8.61943 12.8831 8.53596 12.6542 8.22262C12.41 7.88806 12.4837 7.41801 12.8182 7.17379L14.8319 5.70211C14.1163 5.51556 13.3415 5.40035 12.4999 5.40035C8.12413 5.40039 4.57996 8.94451 4.57996 13.3203C4.58012 17.7065 8.12479 21.2499 12.4999 21.25C16.8756 21.25 20.4198 17.7058 20.4198 13.33C20.4198 11.8051 19.9865 10.3771 19.2391 9.165L19.0858 8.92574L19.0468 8.86031C18.8687 8.52429 18.9706 8.10117 19.2938 7.8857C19.6169 7.67037 20.0462 7.73899 20.288 8.03219L20.3339 8.09371L20.5165 8.37887C21.404 9.81878 21.9198 11.5174 21.9198 13.33C21.9198 18.5342 17.7041 22.75 12.4999 22.75C7.29524 22.7499 3.08012 18.5338 3.07996 13.3203Z" fill="#6B7280"/>
</svg>
