<svg width="25" height="24" viewBox="0 0 25 24" fill="none" xmlns="http://www.w3.org/2000/svg">
<path d="M6.54316 6.04316C9.26742 3.31891 13.6851 3.31898 16.4094 6.04316C18.9665 8.60033 19.1225 12.6487 16.8791 15.3889L19.6955 18.2053L19.7854 18.3156C19.9644 18.5873 19.9346 18.9564 19.6955 19.1955C19.4564 19.4346 19.0873 19.4644 18.8156 19.2854L18.7053 19.1955L15.8889 16.3791C13.1487 18.6225 9.10033 18.4665 6.54316 15.9094C3.81898 13.1851 3.81891 8.76742 6.54316 6.04316ZM15.4191 7.0334C13.2416 4.85595 9.71092 4.85587 7.5334 7.0334C5.35587 9.21092 5.35595 12.7416 7.5334 14.9191C9.70069 17.0864 13.207 17.0953 15.3869 14.9484C15.3965 14.9376 15.4049 14.9256 15.4152 14.9152C15.4256 14.9049 15.4376 14.8965 15.4484 14.8869C17.5953 12.707 17.5864 9.20069 15.4191 7.0334Z" fill="#6B7280"/>
</svg>
