<svg width="342" height="59" viewBox="0 0 342 59" fill="none" xmlns="http://www.w3.org/2000/svg">
<g filter="url(#filter0_d_1139_12044)">
<rect width="40" height="55" transform="translate(0 0.5)" fill="white"/>
<path fill-rule="evenodd" clip-rule="evenodd" d="M28.417 22.5C28.661 22.744 28.661 23.1398 28.417 23.3838L23.8006 28.0002L28.417 32.6166C28.661 32.8607 28.661 33.2564 28.417 33.5005C28.1729 33.7446 27.7772 33.7446 27.5331 33.5005L22.4747 28.4422C22.3575 28.325 22.2917 28.166 22.2917 28.0002C22.2917 27.8345 22.3575 27.6755 22.4747 27.5583L27.5331 22.5C27.7772 22.2559 28.1729 22.2559 28.417 22.5Z" fill="#9CA3AF"/>
<path fill-rule="evenodd" clip-rule="evenodd" d="M22.4334 28.0002C22.4334 27.6551 22.7132 27.3752 23.0584 27.3752H37.0834C37.4285 27.3752 37.7084 27.6551 37.7084 28.0002C37.7084 28.3454 37.4285 28.6252 37.0834 28.6252H23.0584C22.7132 28.6252 22.4334 28.3454 22.4334 28.0002Z" fill="#9CA3AF"/>
<path d="M57.8242 47.067C56.2626 52.0829 51.62 55.5 46.3666 55.5L40 55.5L40 0.499997L72 0.5L69.1355 10.7334L57.8242 47.067Z" fill="white"/>
</g>
<g filter="url(#filter1_d_1139_12044)">
<path d="M80.8012 1.46881e-06L96 2.79753e-06L96 56L74.894 56C69.4932 56 65.6442 50.7586 67.2607 45.6055L69.3902 38.8172L80.8012 1.46881e-06Z" fill="white"/>
<rect width="212" height="56" transform="translate(96)" fill="white"/>
<path d="M101.625 14.6577V22.2236C101.625 22.4531 101.547 22.646 101.391 22.8022C101.234 22.9536 101.037 23.0293 100.797 23.0293C100.568 23.0293 100.373 22.9536 100.211 22.8022C100.055 22.646 99.9771 22.4531 99.9771 22.2236V14.6577C99.9771 14.5161 99.9258 14.3965 99.8232 14.2988C99.7256 14.2012 99.606 14.1523 99.4644 14.1523H98.2046C97.9751 14.1523 97.7822 14.0718 97.626 13.9106C97.4697 13.7495 97.3916 13.5542 97.3916 13.3247C97.3916 13.0952 97.4697 12.8999 97.626 12.7388C97.7822 12.5776 97.9751 12.4971 98.2046 12.4971H103.412C103.642 12.4971 103.83 12.5776 103.976 12.7388C104.127 12.895 104.203 13.0903 104.203 13.3247C104.203 13.5591 104.127 13.7568 103.976 13.918C103.83 14.0742 103.642 14.1523 103.412 14.1523H102.138C101.996 14.1523 101.874 14.2012 101.771 14.2988C101.674 14.3965 101.625 14.5161 101.625 14.6577ZM111.696 12.7534L112.956 13.9839C113.108 14.1353 113.183 14.3257 113.183 14.5552V20.9419C113.183 21.1714 113.108 21.3618 112.956 21.5132L111.696 22.7437C111.55 22.9146 111.357 23 111.118 23H108.474C108.225 23 108.034 22.9146 107.902 22.7437L106.643 21.5132C106.486 21.3569 106.408 21.1665 106.408 20.9419V14.5552C106.408 14.3306 106.486 14.1401 106.643 13.9839L107.902 12.7534C108.034 12.5825 108.225 12.4971 108.474 12.4971H111.118C111.357 12.4971 111.55 12.5825 111.696 12.7534ZM110.92 21.2422L111.447 20.7075C111.506 20.6343 111.535 20.5488 111.535 20.4512V15.0532C111.535 14.9556 111.506 14.8701 111.447 14.7969L110.92 14.2549C110.852 14.1865 110.761 14.1523 110.649 14.1523H108.957C108.845 14.1523 108.754 14.1865 108.686 14.2549L108.159 14.7969C108.09 14.8652 108.056 14.9507 108.056 15.0532V20.4512C108.056 20.5537 108.09 20.6392 108.159 20.7075L108.686 21.2422C108.759 21.3154 108.85 21.3521 108.957 21.3521H110.649C110.756 21.3521 110.847 21.3154 110.92 21.2422ZM122.178 14.8701V22.187C122.178 22.4165 122.1 22.6094 121.944 22.7656C121.792 22.9219 121.602 23 121.372 23C121.138 23 120.938 22.9219 120.772 22.7656C120.611 22.6094 120.53 22.4165 120.53 22.187V19.4185C120.53 19.2769 120.481 19.1572 120.383 19.0596C120.291 18.957 120.174 18.9058 120.032 18.9058H117.542C117.4 18.9058 117.283 18.9546 117.19 19.0522C117.097 19.1499 117.051 19.272 117.051 19.4185V22.187C117.051 22.4165 116.97 22.6094 116.809 22.7656C116.648 22.9219 116.453 23 116.223 23C115.994 23 115.799 22.9219 115.637 22.7656C115.481 22.6094 115.403 22.4165 115.403 22.187V14.8701C115.403 14.6455 115.481 14.4551 115.637 14.2988L117.197 12.7534C117.344 12.5825 117.529 12.4971 117.754 12.4971H119.842C120.047 12.4971 120.23 12.5776 120.391 12.7388L121.936 14.2988C122.097 14.46 122.178 14.6504 122.178 14.8701ZM120.53 16.7451V15.3315C120.53 15.2241 120.501 15.1411 120.442 15.0825L119.6 14.2549C119.531 14.1865 119.446 14.1523 119.343 14.1523H118.252C118.14 14.1523 118.05 14.1865 117.981 14.2549L117.154 15.0825C117.085 15.1509 117.051 15.2339 117.051 15.3315V16.7451C117.051 16.8916 117.097 17.0137 117.19 17.1113C117.283 17.209 117.4 17.2578 117.542 17.2578H120.032C120.174 17.2578 120.291 17.209 120.383 17.1113C120.481 17.0088 120.53 16.8867 120.53 16.7451ZM125.833 16.9429H129.766C129.996 16.9429 130.184 17.0186 130.33 17.1699C130.482 17.3164 130.557 17.5044 130.557 17.7339C130.557 17.9683 130.482 18.1636 130.33 18.3198C130.184 18.4712 129.996 18.5469 129.766 18.5469H125.833C125.604 18.5469 125.411 18.4688 125.255 18.3125C125.103 18.1562 125.028 17.9634 125.028 17.7339C125.028 17.5044 125.103 17.3164 125.255 17.1699C125.411 17.0186 125.604 16.9429 125.833 16.9429ZM138.117 23H135.458C135.209 23 135.018 22.9146 134.887 22.7437L133.627 21.5132C133.471 21.3569 133.392 21.1665 133.392 20.9419V18.9937C133.392 18.7495 133.471 18.5591 133.627 18.4224L133.927 18.1221C134.03 18.0195 134.081 17.895 134.081 17.7485C134.081 17.6118 134.03 17.4922 133.927 17.3896L133.627 17.0894C133.471 16.9526 133.392 16.7622 133.392 16.5181V14.5552C133.392 14.3306 133.471 14.1401 133.627 13.9839L134.887 12.7534C135.018 12.5825 135.209 12.4971 135.458 12.4971H138.117C138.346 12.4971 138.534 12.5825 138.681 12.7534L139.94 13.9839C140.092 14.1353 140.167 14.3257 140.167 14.5552V16.5181C140.167 16.7476 140.092 16.938 139.94 17.0894L139.625 17.3896C139.537 17.4775 139.494 17.5972 139.494 17.7485C139.494 17.9097 139.537 18.0342 139.625 18.1221L139.94 18.4224C140.092 18.5737 140.167 18.7642 140.167 18.9937V20.9419C140.167 21.1714 140.092 21.3618 139.94 21.5132L138.681 22.7437C138.534 22.9146 138.346 23 138.117 23ZM138.432 14.7969L137.904 14.2549C137.836 14.1865 137.746 14.1523 137.633 14.1523H135.941C135.829 14.1523 135.739 14.1865 135.67 14.2549L135.143 14.7969C135.075 14.8652 135.04 14.9458 135.04 15.0386V16.042C135.04 16.1445 135.075 16.23 135.143 16.2983L135.67 16.8477C135.758 16.9209 135.849 16.9575 135.941 16.9575H137.633C137.726 16.9575 137.816 16.9209 137.904 16.8477L138.432 16.2983C138.49 16.2251 138.519 16.1396 138.519 16.042V15.0386C138.519 14.9507 138.49 14.8701 138.432 14.7969ZM138.432 19.2207L137.904 18.6641C137.821 18.5957 137.731 18.5615 137.633 18.5615H135.941C135.844 18.5615 135.753 18.5957 135.67 18.6641L135.143 19.2207C135.075 19.2891 135.04 19.3745 135.04 19.4771V20.4658C135.04 20.5586 135.075 20.6392 135.143 20.7075L135.67 21.2422C135.744 21.3154 135.834 21.3521 135.941 21.3521H137.633C137.741 21.3521 137.831 21.3154 137.904 21.2422L138.432 20.7075C138.49 20.6343 138.519 20.5537 138.519 20.4658V19.4771C138.519 19.3794 138.49 19.2939 138.432 19.2207ZM147.514 15.2144V15.0386C147.514 14.9507 147.485 14.8701 147.426 14.7969L146.899 14.2549C146.831 14.1865 146.74 14.1523 146.628 14.1523H144.936C144.824 14.1523 144.733 14.1865 144.665 14.2549L144.138 14.7969C144.069 14.8652 144.035 14.9458 144.035 15.0386V20.4658C144.035 20.5586 144.069 20.6392 144.138 20.7075L144.665 21.2422C144.738 21.3154 144.829 21.3521 144.936 21.3521H146.628C146.735 21.3521 146.826 21.3154 146.899 21.2422L147.426 20.7075C147.485 20.6343 147.514 20.5537 147.514 20.4658V19.0669C147.514 18.9253 147.465 18.8057 147.368 18.708C147.275 18.6104 147.158 18.5615 147.016 18.5615H146.167C145.947 18.5615 145.756 18.4834 145.595 18.3271C145.434 18.1709 145.354 17.978 145.354 17.7485C145.354 17.5239 145.434 17.3359 145.595 17.1846C145.756 17.0332 145.947 16.9575 146.167 16.9575H148.356C148.586 16.9575 148.776 17.0332 148.928 17.1846C149.084 17.3311 149.162 17.519 149.162 17.7485V20.9272C149.162 21.1421 149.086 21.3374 148.935 21.5132L147.675 22.7437C147.529 22.9146 147.336 23 147.097 23H144.453C144.204 23 144.013 22.9146 143.881 22.7437L142.622 21.5132C142.465 21.3569 142.387 21.1616 142.387 20.9272V14.5552C142.387 14.3306 142.465 14.1401 142.622 13.9839L143.881 12.7534C144.013 12.5825 144.204 12.4971 144.453 12.4971H147.097C147.336 12.4971 147.529 12.5825 147.675 12.7534L148.935 13.9839C149.086 14.1353 149.162 14.3257 149.162 14.5552V15.2144C149.162 15.4438 149.084 15.6343 148.928 15.7856C148.776 15.937 148.586 16.0127 148.356 16.0127C148.122 16.0127 147.922 15.937 147.756 15.7856C147.595 15.6343 147.514 15.4438 147.514 15.2144ZM158.157 14.8701V22.187C158.157 22.4165 158.079 22.6094 157.922 22.7656C157.771 22.9219 157.581 23 157.351 23C157.117 23 156.917 22.9219 156.751 22.7656C156.589 22.6094 156.509 22.4165 156.509 22.187V19.4185C156.509 19.2769 156.46 19.1572 156.362 19.0596C156.27 18.957 156.152 18.9058 156.011 18.9058H153.521C153.379 18.9058 153.262 18.9546 153.169 19.0522C153.076 19.1499 153.03 19.272 153.03 19.4185V22.187C153.03 22.4165 152.949 22.6094 152.788 22.7656C152.627 22.9219 152.432 23 152.202 23C151.973 23 151.777 22.9219 151.616 22.7656C151.46 22.6094 151.382 22.4165 151.382 22.187V14.8701C151.382 14.6455 151.46 14.4551 151.616 14.2988L153.176 12.7534C153.323 12.5825 153.508 12.4971 153.733 12.4971H155.82C156.025 12.4971 156.209 12.5776 156.37 12.7388L157.915 14.2988C158.076 14.46 158.157 14.6504 158.157 14.8701ZM156.509 16.7451V15.3315C156.509 15.2241 156.48 15.1411 156.421 15.0825L155.579 14.2549C155.51 14.1865 155.425 14.1523 155.322 14.1523H154.231C154.119 14.1523 154.028 14.1865 153.96 14.2549L153.132 15.0825C153.064 15.1509 153.03 15.2339 153.03 15.3315V16.7451C153.03 16.8916 153.076 17.0137 153.169 17.1113C153.262 17.209 153.379 17.2578 153.521 17.2578H156.011C156.152 17.2578 156.27 17.209 156.362 17.1113C156.46 17.0088 156.509 16.8867 156.509 16.7451ZM162.025 20.2827V20.4658C162.025 20.5684 162.059 20.6538 162.127 20.7222L162.654 21.2422C162.728 21.3154 162.818 21.3521 162.925 21.3521H164.617C164.725 21.3521 164.815 21.3154 164.888 21.2422L165.416 20.7222C165.474 20.6489 165.504 20.5635 165.504 20.4658V19.1475C165.504 19.0498 165.474 18.9644 165.416 18.8911L164.888 18.3638C164.82 18.2954 164.73 18.2612 164.617 18.2612H162.442C162.188 18.2612 161.998 18.1807 161.871 18.0195L160.611 16.7744C160.455 16.6182 160.377 16.4229 160.377 16.1885V13.3247C160.377 13.0952 160.455 12.8999 160.611 12.7388C160.772 12.5776 160.967 12.4971 161.197 12.4971H166.346C166.575 12.4971 166.766 12.5776 166.917 12.7388C167.073 12.895 167.152 13.0903 167.152 13.3247C167.152 13.564 167.073 13.7617 166.917 13.918C166.766 14.0742 166.575 14.1523 166.346 14.1523H162.515C162.374 14.1523 162.257 14.2012 162.164 14.2988C162.071 14.3965 162.025 14.5161 162.025 14.6577V15.7271C162.025 15.8491 162.059 15.9346 162.127 15.9834L162.654 16.5034C162.728 16.5767 162.818 16.6133 162.925 16.6133H165.086C165.325 16.6133 165.518 16.6963 165.665 16.8623L166.925 18.0928C167.076 18.2686 167.152 18.459 167.152 18.6641V20.9565C167.152 21.1519 167.076 21.3374 166.925 21.5132L165.665 22.7437C165.518 22.9146 165.325 23 165.086 23H162.442C162.193 23 162.003 22.9146 161.871 22.7437L160.611 21.5132C160.455 21.3569 160.377 21.1714 160.377 20.9565V20.2827C160.377 20.0679 160.455 19.8848 160.611 19.7334C160.772 19.582 160.967 19.5063 161.197 19.5063C161.426 19.5063 161.622 19.582 161.783 19.7334C161.944 19.8848 162.025 20.0679 162.025 20.2827ZM174.498 22.187V15.4854C174.498 15.4072 174.479 15.3682 174.44 15.3682C174.415 15.3682 174.384 15.3877 174.345 15.4268L173.671 16.1152C173.602 16.1836 173.568 16.2739 173.568 16.3862V17.7485C173.568 17.978 173.49 18.1685 173.334 18.3198C173.178 18.4712 172.985 18.5469 172.755 18.5469C172.516 18.5469 172.316 18.4712 172.155 18.3198C171.998 18.1685 171.92 17.978 171.92 17.7485V16.3862C171.92 16.269 171.888 16.1787 171.825 16.1152L171.166 15.4121C171.141 15.373 171.112 15.3535 171.078 15.3535C171.039 15.3535 171.019 15.3926 171.019 15.4707V22.187C171.019 22.4165 170.939 22.6094 170.778 22.7656C170.617 22.9219 170.421 23 170.192 23C169.962 23 169.767 22.9219 169.606 22.7656C169.45 22.6094 169.371 22.4165 169.371 22.187V13.3101C169.371 13.0806 169.45 12.8877 169.606 12.7314C169.767 12.5752 169.962 12.4971 170.192 12.4971C170.431 12.4971 170.631 12.5776 170.792 12.7388L172.382 14.3721C172.523 14.4746 172.648 14.5259 172.755 14.5259C172.838 14.5259 172.96 14.4795 173.121 14.3867L174.74 12.7388C174.901 12.5776 175.101 12.4971 175.341 12.4971C175.57 12.4971 175.761 12.5752 175.912 12.7314C176.068 12.8877 176.146 13.0806 176.146 13.3101V22.187C176.146 22.4165 176.068 22.6094 175.912 22.7656C175.761 22.9219 175.57 23 175.341 23C175.106 23 174.906 22.9219 174.74 22.7656C174.579 22.6094 174.498 22.4165 174.498 22.187ZM183.354 12.7388L184.899 14.2988C185.06 14.46 185.141 14.6504 185.141 14.8701V20.627C185.141 20.8467 185.06 21.0371 184.899 21.1982L183.354 22.7583C183.193 22.9194 183.01 23 182.805 23H179.186C178.957 23 178.762 22.9194 178.6 22.7583C178.444 22.5972 178.366 22.4019 178.366 22.1724V13.3247C178.366 13.0952 178.444 12.8999 178.6 12.7388C178.762 12.5776 178.957 12.4971 179.186 12.4971H182.805C183.01 12.4971 183.193 12.5776 183.354 12.7388ZM182.563 21.2422L183.405 20.4219C183.464 20.3486 183.493 20.2583 183.493 20.1509V15.3535C183.493 15.2461 183.464 15.1558 183.405 15.0825L182.563 14.2549C182.495 14.1865 182.409 14.1523 182.307 14.1523H180.505C180.363 14.1523 180.246 14.2012 180.153 14.2988C180.06 14.3965 180.014 14.5161 180.014 14.6577V20.8394C180.014 20.9858 180.06 21.1079 180.153 21.2056C180.246 21.3032 180.363 21.3521 180.505 21.3521H182.307C182.404 21.3521 182.49 21.3154 182.563 21.2422ZM189.009 13.2808V20.4512C189.009 20.5537 189.043 20.6392 189.111 20.7075L189.639 21.2422C189.712 21.3154 189.802 21.3521 189.91 21.3521H191.602C191.709 21.3521 191.799 21.3154 191.873 21.2422L192.4 20.7075C192.458 20.6489 192.488 20.5635 192.488 20.4512V13.2808C192.488 13.0513 192.568 12.8584 192.729 12.7021C192.896 12.5459 193.096 12.4678 193.33 12.4678C193.56 12.4678 193.75 12.5459 193.901 12.7021C194.058 12.8584 194.136 13.0513 194.136 13.2808V20.9419C194.136 21.1714 194.06 21.3618 193.909 21.5132L192.649 22.7437C192.502 22.9146 192.31 23 192.07 23H189.426C189.177 23 188.987 22.9146 188.855 22.7437L187.595 21.5132C187.439 21.3569 187.361 21.1665 187.361 20.9419V13.2808C187.361 13.0513 187.439 12.8584 187.595 12.7021C187.756 12.5459 187.952 12.4678 188.181 12.4678C188.411 12.4678 188.606 12.5459 188.767 12.7021C188.928 12.8584 189.009 13.0513 189.009 13.2808ZM201.343 12.7388L202.889 14.2988C203.05 14.46 203.13 14.6504 203.13 14.8701V20.627C203.13 20.8467 203.05 21.0371 202.889 21.1982L201.343 22.7583C201.182 22.9194 200.999 23 200.794 23H197.176C196.946 23 196.751 22.9194 196.59 22.7583C196.434 22.5972 196.356 22.4019 196.356 22.1724V13.3247C196.356 13.0952 196.434 12.8999 196.59 12.7388C196.751 12.5776 196.946 12.4971 197.176 12.4971H200.794C200.999 12.4971 201.182 12.5776 201.343 12.7388ZM200.552 21.2422L201.395 20.4219C201.453 20.3486 201.483 20.2583 201.483 20.1509V15.3535C201.483 15.2461 201.453 15.1558 201.395 15.0825L200.552 14.2549C200.484 14.1865 200.399 14.1523 200.296 14.1523H198.494C198.353 14.1523 198.235 14.2012 198.143 14.2988C198.05 14.3965 198.004 14.5161 198.004 14.6577V20.8394C198.004 20.9858 198.05 21.1079 198.143 21.2056C198.235 21.3032 198.353 21.3521 198.494 21.3521H200.296C200.394 21.3521 200.479 21.3154 200.552 21.2422ZM206.998 19.0669V22.187C206.998 22.4165 206.918 22.6094 206.757 22.7656C206.595 22.9219 206.4 23 206.171 23C205.941 23 205.746 22.9219 205.585 22.7656C205.428 22.6094 205.35 22.4165 205.35 22.187V13.3247C205.35 13.0952 205.428 12.8999 205.585 12.7388C205.746 12.5776 205.941 12.4971 206.171 12.4971H211.334C211.564 12.4971 211.752 12.5776 211.898 12.7388C212.05 12.895 212.125 13.0903 212.125 13.3247C212.125 13.5591 212.05 13.7568 211.898 13.918C211.752 14.0742 211.564 14.1523 211.334 14.1523H207.504C207.362 14.1523 207.242 14.2012 207.145 14.2988C207.047 14.3965 206.998 14.5161 206.998 14.6577V16.4302C206.998 16.5767 207.047 16.7012 207.145 16.8037C207.242 16.9062 207.362 16.9575 207.504 16.9575H210.338C210.568 16.9575 210.758 17.0332 210.909 17.1846C211.061 17.3311 211.136 17.519 211.136 17.7485C211.136 17.9683 211.061 18.1562 210.909 18.3125C210.758 18.4688 210.568 18.5469 210.338 18.5469H207.504C207.362 18.5469 207.242 18.5981 207.145 18.7007C207.047 18.8032 206.998 18.9253 206.998 19.0669ZM218.556 14.6577V22.2236C218.556 22.4531 218.478 22.646 218.322 22.8022C218.166 22.9536 217.968 23.0293 217.729 23.0293C217.499 23.0293 217.304 22.9536 217.143 22.8022C216.987 22.646 216.908 22.4531 216.908 22.2236V14.6577C216.908 14.5161 216.857 14.3965 216.755 14.2988C216.657 14.2012 216.537 14.1523 216.396 14.1523H215.136C214.907 14.1523 214.714 14.0718 214.557 13.9106C214.401 13.7495 214.323 13.5542 214.323 13.3247C214.323 13.0952 214.401 12.8999 214.557 12.7388C214.714 12.5776 214.907 12.4971 215.136 12.4971H220.344C220.573 12.4971 220.761 12.5776 220.908 12.7388C221.059 12.895 221.135 13.0903 221.135 13.3247C221.135 13.5591 221.059 13.7568 220.908 13.918C220.761 14.0742 220.573 14.1523 220.344 14.1523H219.069C218.928 14.1523 218.805 14.2012 218.703 14.2988C218.605 14.3965 218.556 14.5161 218.556 14.6577Z" fill="#1F2937" fill-opacity="0.88"/>
<rect x="227.5" y="9.5" width="25" height="16" rx="3.5" fill="#FFF0B8"/>
<rect x="227.5" y="9.5" width="25" height="16" rx="3.5" stroke="#FFD028"/>
<path d="M231.46 21L233.35 13.7H234.66L236.54 21H235.53L235.07 19.1H232.93L232.47 21H231.46ZM233.13 18.28H234.87L234.35 16.1C234.25 15.7 234.17 15.36 234.11 15.08C234.05 14.8 234.013 14.61 234 14.51C233.987 14.61 233.95 14.8 233.89 15.08C233.83 15.36 233.753 15.6967 233.66 16.09L233.13 18.28ZM237.676 21V13.7H239.076L239.976 16.85L240.916 13.7H242.326V21H241.376V17.65C241.376 17.2967 241.383 16.9067 241.396 16.48C241.409 16.0467 241.426 15.6167 241.446 15.19C241.473 14.7567 241.499 14.3667 241.526 14.02L240.386 17.76H239.546L238.446 14.11C238.506 14.5967 238.549 15.14 238.576 15.74C238.603 16.3333 238.616 16.97 238.616 17.65V21H237.676ZM243.832 21V20.03L247.022 14.6H243.882V13.7H248.052V14.67L244.852 20.1H248.162V21H243.832Z" fill="#1F2937"/>
<rect x="257.5" y="9.5" width="19" height="16" rx="3.5" fill="#EAF4FB"/>
<rect x="257.5" y="9.5" width="19" height="16" rx="3.5" stroke="#AAC9FF"/>
<path d="M261.88 21V13.7H264.25C264.717 13.7 265.12 13.79 265.46 13.97C265.8 14.15 266.063 14.4033 266.25 14.73C266.437 15.05 266.53 15.4333 266.53 15.88C266.53 16.32 266.437 16.7033 266.25 17.03C266.063 17.35 265.797 17.6 265.45 17.78C265.11 17.96 264.71 18.05 264.25 18.05H262.87V21H261.88ZM262.87 17.17H264.25C264.637 17.17 264.943 17.0533 265.17 16.82C265.397 16.58 265.51 16.2667 265.51 15.88C265.51 15.4867 265.397 15.1733 265.17 14.94C264.943 14.7 264.637 14.58 264.25 14.58H262.87V17.17ZM267.886 21V20.1H269.836V14.59L267.876 16.05V14.93L269.536 13.7H270.826V20.1H272.426V21H267.886Z" fill="#1F2937"/>
<path d="M100.19 42.8L99.15 41.09C99.13 41.0967 99.1067 41.1 99.08 41.1C99.0533 41.1 99.0267 41.1 99 41.1C98.32 41.1 97.7767 40.9033 97.37 40.51C96.97 40.1167 96.77 39.5933 96.77 38.94V35.76C96.77 35.1 96.97 34.5767 97.37 34.19C97.7767 33.7967 98.32 33.6 99 33.6C99.68 33.6 100.22 33.7967 100.62 34.19C101.027 34.5767 101.23 35.1 101.23 35.76V38.94C101.23 39.3867 101.133 39.7767 100.94 40.11C100.747 40.4433 100.477 40.6933 100.13 40.86L101.31 42.8H100.19ZM99 40.22C99.38 40.22 99.68 40.1067 99.9 39.88C100.127 39.6467 100.24 39.3333 100.24 38.94V35.76C100.24 35.3667 100.127 35.0533 99.9 34.82C99.68 34.5867 99.38 34.47 99 34.47C98.62 34.47 98.3167 34.5867 98.09 34.82C97.87 35.0533 97.76 35.3667 97.76 35.76V38.94C97.76 39.3333 97.87 39.6467 98.09 39.88C98.3167 40.1067 98.62 40.22 99 40.22ZM105.076 41.1C104.403 41.1 103.866 40.9133 103.466 40.54C103.073 40.16 102.876 39.64 102.876 38.98V35.71C102.876 35.0567 103.073 34.5433 103.466 34.17C103.866 33.79 104.403 33.6 105.076 33.6C105.743 33.6 106.273 33.79 106.666 34.17C107.066 34.55 107.266 35.0633 107.266 35.71H106.276C106.276 35.3167 106.169 35.0133 105.956 34.8C105.743 34.5867 105.449 34.48 105.076 34.48C104.696 34.48 104.399 34.5867 104.186 34.8C103.973 35.0133 103.866 35.3167 103.866 35.71V38.98C103.866 39.38 103.973 39.6867 104.186 39.9C104.399 40.1133 104.696 40.22 105.076 40.22C105.449 40.22 105.743 40.1133 105.956 39.9C106.169 39.6867 106.276 39.38 106.276 38.98H107.266C107.266 39.6333 107.066 40.15 106.666 40.53C106.273 40.91 105.743 41.1 105.076 41.1ZM114.868 41V33.7H117.238C117.705 33.7 118.108 33.79 118.448 33.97C118.788 34.15 119.052 34.4033 119.238 34.73C119.425 35.05 119.518 35.4333 119.518 35.88C119.518 36.32 119.425 36.7033 119.238 37.03C119.052 37.35 118.785 37.6 118.438 37.78C118.098 37.96 117.698 38.05 117.238 38.05H115.858V41H114.868ZM115.858 37.17H117.238C117.625 37.17 117.932 37.0533 118.158 36.82C118.385 36.58 118.498 36.2667 118.498 35.88C118.498 35.4867 118.385 35.1733 118.158 34.94C117.932 34.7 117.625 34.58 117.238 34.58H115.858V37.17ZM122.474 41.1C121.908 41.1 121.458 40.9433 121.124 40.63C120.798 40.31 120.634 39.8933 120.634 39.38C120.634 38.8667 120.804 38.4533 121.144 38.14C121.491 37.8267 121.944 37.67 122.504 37.67H124.114V37.25C124.114 36.5767 123.741 36.24 122.994 36.24C122.661 36.24 122.391 36.3033 122.184 36.43C121.984 36.55 121.878 36.72 121.864 36.94H120.884C120.918 36.4933 121.121 36.1267 121.494 35.84C121.868 35.5467 122.368 35.4 122.994 35.4C123.668 35.4 124.188 35.56 124.554 35.88C124.921 36.2 125.104 36.65 125.104 37.23V41H124.134V39.99H124.114C124.068 40.33 123.898 40.6 123.604 40.8C123.318 41 122.941 41.1 122.474 41.1ZM122.734 40.27C123.154 40.27 123.488 40.17 123.734 39.97C123.988 39.7633 124.114 39.4833 124.114 39.13V38.4H122.594C122.308 38.4 122.074 38.4867 121.894 38.66C121.721 38.8267 121.634 39.05 121.634 39.33C121.634 39.6167 121.731 39.8467 121.924 40.02C122.118 40.1867 122.388 40.27 122.734 40.27ZM128.76 41.08C128.134 41.08 127.647 40.94 127.3 40.66C126.954 40.38 126.78 39.9867 126.78 39.48H127.76C127.76 39.72 127.847 39.91 128.02 40.05C128.2 40.1833 128.447 40.25 128.76 40.25H129.2C129.527 40.25 129.777 40.18 129.95 40.04C130.13 39.9 130.22 39.7033 130.22 39.45C130.22 39.0033 130 38.7533 129.56 38.7L128.08 38.49C127.687 38.43 127.384 38.27 127.17 38.01C126.957 37.7433 126.85 37.4 126.85 36.98C126.85 36.4867 127.017 36.1033 127.35 35.83C127.684 35.5567 128.15 35.42 128.75 35.42H129.19C129.75 35.42 130.204 35.5533 130.55 35.82C130.897 36.0867 131.08 36.44 131.1 36.88H130.1C130.087 36.6933 130 36.54 129.84 36.42C129.68 36.2933 129.464 36.23 129.19 36.23H128.75C128.45 36.23 128.217 36.2967 128.05 36.43C127.89 36.5633 127.81 36.7433 127.81 36.97C127.81 37.3367 127.994 37.5433 128.36 37.59L129.75 37.79C130.704 37.9167 131.18 38.47 131.18 39.45C131.18 39.97 131.007 40.3733 130.66 40.66C130.32 40.94 129.834 41.08 129.2 41.08H128.76ZM134.757 41.08C134.13 41.08 133.643 40.94 133.297 40.66C132.95 40.38 132.777 39.9867 132.777 39.48H133.757C133.757 39.72 133.843 39.91 134.017 40.05C134.197 40.1833 134.443 40.25 134.757 40.25H135.197C135.523 40.25 135.773 40.18 135.947 40.04C136.127 39.9 136.217 39.7033 136.217 39.45C136.217 39.0033 135.997 38.7533 135.557 38.7L134.077 38.49C133.683 38.43 133.38 38.27 133.167 38.01C132.953 37.7433 132.847 37.4 132.847 36.98C132.847 36.4867 133.013 36.1033 133.347 35.83C133.68 35.5567 134.147 35.42 134.747 35.42H135.187C135.747 35.42 136.2 35.5533 136.547 35.82C136.893 36.0867 137.077 36.44 137.097 36.88H136.097C136.083 36.6933 135.997 36.54 135.837 36.42C135.677 36.2933 135.46 36.23 135.187 36.23H134.747C134.447 36.23 134.213 36.2967 134.047 36.43C133.887 36.5633 133.807 36.7433 133.807 36.97C133.807 37.3367 133.99 37.5433 134.357 37.59L135.747 37.79C136.7 37.9167 137.177 38.47 137.177 39.45C137.177 39.97 137.003 40.3733 136.657 40.66C136.317 40.94 135.83 41.08 135.197 41.08H134.757ZM140.973 41.1C140.313 41.1 139.779 40.9033 139.373 40.51C138.973 40.1167 138.773 39.58 138.773 38.9V37.6C138.773 36.92 138.973 36.3833 139.373 35.99C139.779 35.5967 140.313 35.4 140.973 35.4C141.413 35.4 141.796 35.49 142.123 35.67C142.456 35.8433 142.713 36.09 142.893 36.41C143.079 36.7233 143.173 37.09 143.173 37.51V38.5H139.743V38.98C139.743 39.38 139.853 39.6933 140.073 39.92C140.293 40.1467 140.593 40.26 140.973 40.26C141.293 40.26 141.556 40.2 141.763 40.08C141.969 39.96 142.093 39.7933 142.133 39.58H143.123C143.056 40.0467 142.826 40.4167 142.433 40.69C142.039 40.9633 141.553 41.1 140.973 41.1ZM139.743 37.51V37.77H142.203V37.51C142.203 37.09 142.096 36.7667 141.883 36.54C141.669 36.3133 141.366 36.2 140.973 36.2C140.579 36.2 140.276 36.3133 140.063 36.54C139.849 36.7667 139.743 37.09 139.743 37.51ZM146.609 41.1C146.055 41.1 145.615 40.9167 145.289 40.55C144.962 40.1767 144.799 39.6733 144.799 39.04V37.46C144.799 36.8267 144.962 36.3267 145.289 35.96C145.615 35.5867 146.055 35.4 146.609 35.4C147.015 35.4 147.352 35.5033 147.619 35.71C147.892 35.9167 148.059 36.2 148.119 36.56L148.099 35.28V33.7H149.089V41H148.109V39.93C148.049 40.2967 147.885 40.5833 147.619 40.79C147.352 40.9967 147.015 41.1 146.609 41.1ZM146.949 40.24C147.302 40.24 147.582 40.13 147.789 39.91C147.995 39.69 148.099 39.38 148.099 38.98V37.52C148.099 37.12 147.995 36.81 147.789 36.59C147.582 36.37 147.302 36.26 146.949 36.26C146.582 36.26 146.295 36.3567 146.089 36.55C145.889 36.7367 145.789 37.0433 145.789 37.47V39.03C145.789 39.4567 145.889 39.7667 146.089 39.96C146.295 40.1467 146.582 40.24 146.949 40.24ZM152.965 36.93C152.685 36.93 152.472 36.86 152.325 36.72C152.178 36.58 152.105 36.3933 152.105 36.16C152.105 35.9333 152.178 35.75 152.325 35.61C152.472 35.47 152.685 35.4 152.965 35.4C153.245 35.4 153.458 35.47 153.605 35.61C153.752 35.75 153.825 35.9333 153.825 36.16C153.825 36.3933 153.752 36.58 153.605 36.72C153.458 36.86 153.245 36.93 152.965 36.93ZM152.965 41.1C152.685 41.1 152.472 41.03 152.325 40.89C152.178 40.75 152.105 40.5667 152.105 40.34C152.105 40.1067 152.178 39.92 152.325 39.78C152.472 39.64 152.685 39.57 152.965 39.57C153.245 39.57 153.458 39.64 153.605 39.78C153.752 39.92 153.825 40.1067 153.825 40.34C153.825 40.5667 153.752 40.75 153.605 40.89C153.458 41.03 153.245 41.1 152.965 41.1Z" fill="#1F2937" fill-opacity="0.38"/>
<path d="M162.787 41V40.09L165.267 37.47C165.587 37.1367 165.814 36.8333 165.947 36.56C166.087 36.28 166.157 36.0067 166.157 35.74C166.157 35.36 166.047 35.0567 165.827 34.83C165.607 34.5967 165.31 34.48 164.937 34.48C164.55 34.48 164.244 34.5967 164.017 34.83C163.79 35.0633 163.677 35.38 163.677 35.78H162.687C162.7 35.1133 162.91 34.5833 163.317 34.19C163.73 33.7967 164.27 33.6 164.937 33.6C165.617 33.6 166.157 33.7933 166.557 34.18C166.964 34.5667 167.167 35.0833 167.167 35.73C167.167 36.0833 167.074 36.4533 166.887 36.84C166.7 37.22 166.384 37.64 165.937 38.1L163.997 40.1H167.257V41H162.787ZM176.589 41.1C176.036 41.1 175.596 40.9167 175.269 40.55C174.943 40.1767 174.779 39.6733 174.779 39.04V37.46C174.779 36.8267 174.943 36.3267 175.269 35.96C175.596 35.5867 176.036 35.4 176.589 35.4C176.996 35.4 177.333 35.5033 177.599 35.71C177.873 35.9167 178.039 36.2 178.099 36.56L178.079 35.28V33.7H179.069V41H178.089V39.93C178.029 40.2967 177.866 40.5833 177.599 40.79C177.333 40.9967 176.996 41.1 176.589 41.1ZM176.929 40.24C177.283 40.24 177.563 40.13 177.769 39.91C177.976 39.69 178.079 39.38 178.079 38.98V37.52C178.079 37.12 177.976 36.81 177.769 36.59C177.563 36.37 177.283 36.26 176.929 36.26C176.563 36.26 176.276 36.3567 176.069 36.55C175.869 36.7367 175.769 37.0433 175.769 37.47V39.03C175.769 39.4567 175.869 39.7667 176.069 39.96C176.276 40.1467 176.563 40.24 176.929 40.24ZM182.435 41.1C181.869 41.1 181.419 40.9433 181.085 40.63C180.759 40.31 180.595 39.8933 180.595 39.38C180.595 38.8667 180.765 38.4533 181.105 38.14C181.452 37.8267 181.905 37.67 182.465 37.67H184.075V37.25C184.075 36.5767 183.702 36.24 182.955 36.24C182.622 36.24 182.352 36.3033 182.145 36.43C181.945 36.55 181.839 36.72 181.825 36.94H180.845C180.879 36.4933 181.082 36.1267 181.455 35.84C181.829 35.5467 182.329 35.4 182.955 35.4C183.629 35.4 184.149 35.56 184.515 35.88C184.882 36.2 185.065 36.65 185.065 37.23V41H184.095V39.99H184.075C184.029 40.33 183.859 40.6 183.565 40.8C183.279 41 182.902 41.1 182.435 41.1ZM182.695 40.27C183.115 40.27 183.449 40.17 183.695 39.97C183.949 39.7633 184.075 39.4833 184.075 39.13V38.4H182.555C182.269 38.4 182.035 38.4867 181.855 38.66C181.682 38.8267 181.595 39.05 181.595 39.33C181.595 39.6167 181.692 39.8467 181.885 40.02C182.079 40.1867 182.349 40.27 182.695 40.27ZM187.691 42.8L188.491 40.67L186.441 35.5H187.491L188.731 38.75C188.785 38.89 188.838 39.04 188.891 39.2C188.945 39.36 188.981 39.5 189.001 39.62C189.021 39.5 189.055 39.36 189.101 39.2C189.148 39.04 189.198 38.89 189.251 38.75L190.401 35.5H191.451L188.721 42.8H187.691ZM194.718 41.08C194.091 41.08 193.604 40.94 193.257 40.66C192.911 40.38 192.738 39.9867 192.738 39.48H193.718C193.718 39.72 193.804 39.91 193.978 40.05C194.158 40.1833 194.404 40.25 194.718 40.25H195.158C195.484 40.25 195.734 40.18 195.908 40.04C196.088 39.9 196.178 39.7033 196.178 39.45C196.178 39.0033 195.958 38.7533 195.518 38.7L194.038 38.49C193.644 38.43 193.341 38.27 193.128 38.01C192.914 37.7433 192.808 37.4 192.808 36.98C192.808 36.4867 192.974 36.1033 193.308 35.83C193.641 35.5567 194.108 35.42 194.708 35.42H195.148C195.708 35.42 196.161 35.5533 196.508 35.82C196.854 36.0867 197.038 36.44 197.058 36.88H196.058C196.044 36.6933 195.958 36.54 195.798 36.42C195.638 36.2933 195.421 36.23 195.148 36.23H194.708C194.408 36.23 194.174 36.2967 194.008 36.43C193.848 36.5633 193.768 36.7433 193.768 36.97C193.768 37.3367 193.951 37.5433 194.318 37.59L195.708 37.79C196.661 37.9167 197.138 38.47 197.138 39.45C197.138 39.97 196.964 40.3733 196.618 40.66C196.278 40.94 195.791 41.08 195.158 41.08H194.718ZM206.42 41.1C205.853 41.1 205.403 40.9433 205.07 40.63C204.743 40.31 204.58 39.8933 204.58 39.38C204.58 38.8667 204.75 38.4533 205.09 38.14C205.436 37.8267 205.89 37.67 206.45 37.67H208.06V37.25C208.06 36.5767 207.686 36.24 206.94 36.24C206.606 36.24 206.336 36.3033 206.13 36.43C205.93 36.55 205.823 36.72 205.81 36.94H204.83C204.863 36.4933 205.066 36.1267 205.44 35.84C205.813 35.5467 206.313 35.4 206.94 35.4C207.613 35.4 208.133 35.56 208.5 35.88C208.866 36.2 209.05 36.65 209.05 37.23V41H208.08V39.99H208.06C208.013 40.33 207.843 40.6 207.55 40.8C207.263 41 206.886 41.1 206.42 41.1ZM206.68 40.27C207.1 40.27 207.433 40.17 207.68 39.97C207.933 39.7633 208.06 39.4833 208.06 39.13V38.4H206.54C206.253 38.4 206.02 38.4867 205.84 38.66C205.666 38.8267 205.58 39.05 205.58 39.33C205.58 39.6167 205.676 39.8467 205.87 40.02C206.063 40.1867 206.333 40.27 206.68 40.27ZM211.516 42.8V41.92H213.066C213.366 41.92 213.606 41.8333 213.786 41.66C213.966 41.4933 214.056 41.2633 214.056 40.97V40.51L214.076 39.56H214.066C213.999 39.9 213.836 40.1633 213.576 40.35C213.322 40.5367 212.996 40.63 212.596 40.63C212.029 40.63 211.582 40.45 211.256 40.09C210.929 39.7233 210.766 39.2233 210.766 38.59V37.46C210.766 36.8267 210.929 36.3267 211.256 35.96C211.582 35.5867 212.029 35.4 212.596 35.4C212.982 35.4 213.302 35.4933 213.556 35.68C213.816 35.8667 213.982 36.1233 214.056 36.45H214.066V35.5H215.036V40.98C215.036 41.54 214.859 41.9833 214.506 42.31C214.152 42.6367 213.672 42.8 213.066 42.8H211.516ZM212.906 39.8C213.259 39.8 213.539 39.69 213.746 39.47C213.952 39.25 214.056 38.94 214.056 38.54V37.51C214.056 37.1167 213.952 36.81 213.746 36.59C213.539 36.37 213.259 36.26 212.906 36.26C212.539 36.26 212.256 36.3667 212.056 36.58C211.856 36.7867 211.756 37.07 211.756 37.43V38.63C211.756 38.99 211.856 39.2767 212.056 39.49C212.256 39.6967 212.539 39.8 212.906 39.8ZM218.922 41.08C218.249 41.08 217.712 40.8867 217.312 40.5C216.919 40.1133 216.722 39.5733 216.722 38.88V37.62C216.722 36.9267 216.919 36.3867 217.312 36C217.712 35.6133 218.249 35.42 218.922 35.42C219.595 35.42 220.129 35.6133 220.522 36C220.922 36.3867 221.122 36.9267 221.122 37.62V38.88C221.122 39.5733 220.922 40.1133 220.522 40.5C220.129 40.8867 219.595 41.08 218.922 41.08ZM218.922 40.21C219.295 40.21 219.589 40.1067 219.802 39.9C220.022 39.6867 220.132 39.3767 220.132 38.97V37.53C220.132 37.1233 220.022 36.8167 219.802 36.61C219.589 36.3967 219.295 36.29 218.922 36.29C218.549 36.29 218.252 36.3967 218.032 36.61C217.819 36.8167 217.712 37.1233 217.712 37.53V38.97C217.712 39.3767 217.819 39.6867 218.032 39.9C218.252 40.1067 218.549 40.21 218.922 40.21ZM223.968 42.6L224.508 39.54H225.678L224.968 42.6H223.968ZM236.81 41.1C236.123 41.1 235.58 40.9133 235.18 40.54C234.78 40.16 234.58 39.6467 234.58 39H235.57C235.57 39.38 235.68 39.68 235.9 39.9C236.127 40.1133 236.433 40.22 236.82 40.22C237.2 40.22 237.503 40.1133 237.73 39.9C237.957 39.68 238.07 39.38 238.07 39V38.49C238.07 38.11 237.957 37.81 237.73 37.59C237.51 37.3633 237.207 37.25 236.82 37.25H236V36.42L237.76 34.59H234.8V33.7H238.87V34.6L237.13 36.4C237.723 36.4533 238.193 36.6667 238.54 37.04C238.887 37.4067 239.06 37.89 239.06 38.49V39C239.06 39.6467 238.857 40.16 238.45 40.54C238.05 40.9133 237.503 41.1 236.81 41.1ZM242.906 36.14C242.646 36.14 242.436 36.07 242.276 35.93C242.123 35.79 242.046 35.6033 242.046 35.37C242.046 35.1367 242.123 34.95 242.276 34.81C242.436 34.67 242.646 34.6 242.906 34.6C243.166 34.6 243.373 34.67 243.526 34.81C243.686 34.95 243.766 35.1367 243.766 35.37C243.766 35.6033 243.686 35.79 243.526 35.93C243.373 36.07 243.166 36.14 242.906 36.14ZM242.906 40.3C242.646 40.3 242.436 40.23 242.276 40.09C242.123 39.95 242.046 39.7633 242.046 39.53C242.046 39.2967 242.123 39.11 242.276 38.97C242.436 38.8233 242.646 38.75 242.906 38.75C243.166 38.75 243.373 38.8233 243.526 38.97C243.686 39.11 243.766 39.2967 243.766 39.53C243.766 39.7633 243.686 39.95 243.526 40.09C243.373 40.23 243.166 40.3 242.906 40.3ZM248.902 41.1C248.216 41.1 247.672 40.9067 247.272 40.52C246.872 40.1267 246.672 39.6 246.672 38.94V35.76C246.672 35.1 246.872 34.5767 247.272 34.19C247.672 33.7967 248.216 33.6 248.902 33.6C249.589 33.6 250.132 33.7967 250.532 34.19C250.932 34.5767 251.132 35.1 251.132 35.76V38.94C251.132 39.3733 251.039 39.7533 250.852 40.08C250.672 40.4 250.416 40.65 250.082 40.83C249.749 41.01 249.356 41.1 248.902 41.1ZM248.902 40.25C249.289 40.25 249.599 40.13 249.832 39.89C250.066 39.6433 250.182 39.3267 250.182 38.94V35.76C250.182 35.3733 250.066 35.06 249.832 34.82C249.599 34.5733 249.289 34.45 248.902 34.45C248.516 34.45 248.206 34.5733 247.972 34.82C247.739 35.06 247.622 35.3733 247.622 35.76V38.94C247.622 39.3267 247.739 39.6433 247.972 39.89C248.206 40.13 248.516 40.25 248.902 40.25ZM248.902 37.91C248.716 37.91 248.566 37.86 248.452 37.76C248.346 37.6533 248.292 37.5067 248.292 37.32C248.292 37.1333 248.346 36.9933 248.452 36.9C248.566 36.8 248.716 36.75 248.902 36.75C249.089 36.75 249.239 36.8 249.352 36.9C249.466 36.9933 249.522 37.1333 249.522 37.32C249.522 37.5067 249.466 37.6533 249.352 37.76C249.239 37.86 249.089 37.91 248.902 37.91ZM254.798 41.1C254.112 41.1 253.568 40.9133 253.168 40.54C252.768 40.16 252.568 39.6467 252.568 39H253.558C253.558 39.38 253.668 39.68 253.888 39.9C254.115 40.1133 254.422 40.22 254.808 40.22C255.188 40.22 255.492 40.1133 255.718 39.9C255.945 39.68 256.058 39.38 256.058 39V38.49C256.058 38.11 255.945 37.81 255.718 37.59C255.498 37.3633 255.195 37.25 254.808 37.25H253.988V36.42L255.748 34.59H252.788V33.7H256.858V34.6L255.118 36.4C255.712 36.4533 256.182 36.6667 256.528 37.04C256.875 37.4067 257.048 37.89 257.048 38.49V39C257.048 39.6467 256.845 40.16 256.438 40.54C256.038 40.9133 255.492 41.1 254.798 41.1ZM260.895 36.14C260.635 36.14 260.425 36.07 260.265 35.93C260.111 35.79 260.035 35.6033 260.035 35.37C260.035 35.1367 260.111 34.95 260.265 34.81C260.425 34.67 260.635 34.6 260.895 34.6C261.155 34.6 261.361 34.67 261.515 34.81C261.675 34.95 261.755 35.1367 261.755 35.37C261.755 35.6033 261.675 35.79 261.515 35.93C261.361 36.07 261.155 36.14 260.895 36.14ZM260.895 40.3C260.635 40.3 260.425 40.23 260.265 40.09C260.111 39.95 260.035 39.7633 260.035 39.53C260.035 39.2967 260.111 39.11 260.265 38.97C260.425 38.8233 260.635 38.75 260.895 38.75C261.155 38.75 261.361 38.8233 261.515 38.97C261.675 39.11 261.755 39.2967 261.755 39.53C261.755 39.7633 261.675 39.95 261.515 40.09C261.361 40.23 261.155 40.3 260.895 40.3ZM266.841 41.1C266.154 41.1 265.611 40.9133 265.211 40.54C264.811 40.16 264.611 39.6467 264.611 39H265.601C265.601 39.38 265.711 39.68 265.931 39.9C266.157 40.1133 266.461 40.22 266.841 40.22C267.227 40.22 267.531 40.11 267.751 39.89C267.977 39.67 268.091 39.37 268.091 38.99V38.53C268.091 38.15 267.981 37.85 267.761 37.63C267.547 37.41 267.254 37.3 266.881 37.3H264.861V33.7H268.821V34.6H265.781L265.801 36.41H266.931C267.611 36.41 268.137 36.5967 268.511 36.97C268.891 37.3367 269.081 37.8567 269.081 38.53V38.99C269.081 39.6433 268.877 40.16 268.471 40.54C268.071 40.9133 267.527 41.1 266.841 41.1ZM272.887 41.1C272.42 41.1 272.007 41.01 271.647 40.83C271.293 40.65 271.017 40.4 270.817 40.08C270.617 39.7533 270.517 39.3767 270.517 38.95C270.517 38.4967 270.647 38.1033 270.907 37.77C271.167 37.4367 271.513 37.2333 271.947 37.16V37.13C271.573 37.05 271.273 36.8633 271.047 36.57C270.827 36.27 270.717 35.9267 270.717 35.54C270.717 35.16 270.807 34.8233 270.987 34.53C271.173 34.2367 271.43 34.01 271.757 33.85C272.083 33.6833 272.46 33.6 272.887 33.6C273.313 33.6 273.69 33.6833 274.017 33.85C274.343 34.01 274.597 34.2367 274.777 34.53C274.963 34.8233 275.057 35.16 275.057 35.54C275.057 35.9267 274.943 36.27 274.717 36.57C274.497 36.8633 274.2 37.05 273.827 37.13V37.16C274.26 37.2333 274.607 37.4367 274.867 37.77C275.127 38.1033 275.257 38.4967 275.257 38.95C275.257 39.3767 275.157 39.7533 274.957 40.08C274.757 40.4 274.477 40.65 274.117 40.83C273.763 41.01 273.353 41.1 272.887 41.1ZM272.887 36.76C273.24 36.76 273.527 36.6533 273.747 36.44C273.967 36.2267 274.077 35.95 274.077 35.61C274.077 35.27 273.967 34.9933 273.747 34.78C273.527 34.5667 273.24 34.46 272.887 34.46C272.533 34.46 272.247 34.5667 272.027 34.78C271.807 34.9933 271.697 35.27 271.697 35.61C271.697 35.95 271.807 36.2267 272.027 36.44C272.247 36.6533 272.533 36.76 272.887 36.76ZM272.887 40.23C273.3 40.23 273.633 40.11 273.887 39.87C274.147 39.6233 274.277 39.3067 274.277 38.92C274.277 38.5333 274.147 38.22 273.887 37.98C273.633 37.7333 273.3 37.61 272.887 37.61C272.473 37.61 272.137 37.7333 271.877 37.98C271.623 38.22 271.497 38.5333 271.497 38.92C271.497 39.3067 271.623 39.6233 271.877 39.87C272.137 40.11 272.473 40.23 272.887 40.23ZM282.759 41V33.7H285.129C285.596 33.7 285.999 33.79 286.339 33.97C286.679 34.15 286.942 34.4033 287.129 34.73C287.316 35.05 287.409 35.4333 287.409 35.88C287.409 36.32 287.316 36.7033 287.129 37.03C286.942 37.35 286.676 37.6 286.329 37.78C285.989 37.96 285.589 38.05 285.129 38.05H283.749V41H282.759ZM283.749 37.17H285.129C285.516 37.17 285.822 37.0533 286.049 36.82C286.276 36.58 286.389 36.2667 286.389 35.88C286.389 35.4867 286.276 35.1733 286.049 34.94C285.822 34.7 285.516 34.58 285.129 34.58H283.749V37.17ZM288.555 41V33.7H289.955L290.855 36.85L291.795 33.7H293.205V41H292.255V37.65C292.255 37.2967 292.262 36.9067 292.275 36.48C292.288 36.0467 292.305 35.6167 292.325 35.19C292.352 34.7567 292.378 34.3667 292.405 34.02L291.265 37.76H290.425L289.325 34.11C289.385 34.5967 289.428 35.14 289.455 35.74C289.482 36.3333 289.495 36.97 289.495 37.65V41H288.555Z" fill="#1F2937" fill-opacity="0.88"/>
<path d="M305.467 35.9082H302.871H300.533C300.133 35.9082 299.933 36.3915 300.217 36.6749L302.375 38.8332C302.721 39.179 303.283 39.179 303.629 38.8332L304.45 38.0124L305.788 36.6749C306.067 36.3915 305.867 35.9082 305.467 35.9082Z" fill="#6B7280"/>
<path d="M325.795 47.5088C324.252 52.5541 319.595 56 314.32 56L308 56L308 -2.79753e-06L340 0L337.136 10.4195L325.795 47.5088Z" fill="white"/>
</g>
<defs>
<filter id="filter0_d_1139_12044" x="-2" y="-0.5" width="76" height="59" filterUnits="userSpaceOnUse" color-interpolation-filters="sRGB">
<feFlood flood-opacity="0" result="BackgroundImageFix"/>
<feColorMatrix in="SourceAlpha" type="matrix" values="0 0 0 0 0 0 0 0 0 0 0 0 0 0 0 0 0 0 127 0" result="hardAlpha"/>
<feMorphology radius="1" operator="erode" in="SourceAlpha" result="effect1_dropShadow_1139_12044"/>
<feOffset dy="1"/>
<feGaussianBlur stdDeviation="1.5"/>
<feComposite in2="hardAlpha" operator="out"/>
<feColorMatrix type="matrix" values="0 0 0 0 0 0 0 0 0 0 0 0 0 0 0 0 0 0 0.12 0"/>
<feBlend mode="normal" in2="BackgroundImageFix" result="effect1_dropShadow_1139_12044"/>
<feBlend mode="normal" in="SourceGraphic" in2="effect1_dropShadow_1139_12044" result="shape"/>
</filter>
<filter id="filter1_d_1139_12044" x="62" y="-1" width="280" height="60" filterUnits="userSpaceOnUse" color-interpolation-filters="sRGB">
<feFlood flood-opacity="0" result="BackgroundImageFix"/>
<feColorMatrix in="SourceAlpha" type="matrix" values="0 0 0 0 0 0 0 0 0 0 0 0 0 0 0 0 0 0 127 0" result="hardAlpha"/>
<feMorphology radius="1" operator="erode" in="SourceAlpha" result="effect1_dropShadow_1139_12044"/>
<feOffset dy="1"/>
<feGaussianBlur stdDeviation="1.5"/>
<feComposite in2="hardAlpha" operator="out"/>
<feColorMatrix type="matrix" values="0 0 0 0 0 0 0 0 0 0 0 0 0 0 0 0 0 0 0.12 0"/>
<feBlend mode="normal" in2="BackgroundImageFix" result="effect1_dropShadow_1139_12044"/>
<feBlend mode="normal" in="SourceGraphic" in2="effect1_dropShadow_1139_12044" result="shape"/>
</filter>
</defs>
</svg>
