<svg width="10" height="10" viewBox="0 0 10 10" fill="none" xmlns="http://www.w3.org/2000/svg">
<path fill-rule="evenodd" clip-rule="evenodd" d="M0.874014 0.766992C0.422732 1.20457 0.40592 1.15752 1.35416 2.11009L2.12975 2.88919L1.77756 3.25413C1.58385 3.4548 1.18123 3.86707 0.882873 4.17024C0.440961 4.61923 0.313474 4.77523 0.195318 5.01142C0.0663356 5.26927 0.0485394 5.34167 0.0343655 5.66519C0.0150338 6.1077 0.0818088 6.37086 0.293394 6.6856C0.478561 6.96104 2.66796 9.16064 2.88183 9.28608C3.41981 9.60161 4.18698 9.56425 4.66129 9.19939C4.9417 8.98371 8.74622 5.12367 8.83548 4.96433C8.90765 4.83543 8.8954 4.57974 8.81036 4.44029C8.76886 4.37225 8.06304 3.63698 7.24182 2.80635C6.42059 1.97568 5.6028 1.14197 5.42444 0.953654C5.03682 0.544302 4.84827 0.447646 4.58916 0.525288C4.45943 0.564148 4.28986 0.715217 3.69872 1.31855C3.29713 1.72846 2.95613 2.06383 2.94097 2.06383C2.92581 2.06383 2.56965 1.71905 2.14955 1.29761C1.65732 0.803883 1.34727 0.522373 1.27758 0.505955C1.18242 0.483552 1.13407 0.514814 0.874014 0.766992ZM4.20265 2.40298L3.72109 2.89966L4.2719 3.45618C4.91843 4.10941 4.97706 4.21957 4.84622 4.53525C4.79008 4.67069 4.72779 4.74381 4.61318 4.80873C4.27226 5.00181 4.11315 4.92378 3.44903 4.23776L2.93128 3.70289L2.09561 4.54683C1.63602 5.01099 1.23891 5.43061 1.21317 5.47936L1.16639 5.56794H3.93437H6.70234L7.10992 5.15895C7.33414 4.93397 7.51096 4.7327 7.50297 4.7116C7.47494 4.63801 4.77409 1.90634 4.72933 1.90634C4.70448 1.90634 4.4675 2.12982 4.20265 2.40298ZM8.6389 6.50303C7.97804 7.56273 7.7594 8.0774 7.79291 8.49459C7.81673 8.79138 7.92201 9.01005 8.13281 9.20049C8.35746 9.40345 8.51326 9.47338 8.79032 9.49558C9.23326 9.53117 9.62615 9.32034 9.86081 8.92111C9.95569 8.75972 9.96881 8.69672 9.96881 8.40273C9.96881 8.07228 9.9657 8.06165 9.72056 7.55623C9.46476 7.02884 8.94568 6.15853 8.8869 6.15853C8.86867 6.15853 8.75705 6.31357 8.6389 6.50303Z" fill="#4B5563"/>
</svg>
